<svg xmlns="http://www.w3.org/2000/svg" viewBox="0 0 131.92 131.92">
    <defs>
        <style>
            .cls-2{
                fill:none;
                stroke:#FBB967;
                stroke-linecap:round;
                stroke-linejoin:round;
                stroke-width:5px;
                fill-rule:evenodd;}
        </style>
    </defs>
    <path class="cls-2" d="M92.17,52.86c0-18.11-19.06-32.77-42.58-32.77S7,34.75,7,52.86c0,7,2.89,13.49,7.78,18.83A46.72,46.72,0,0,1,7.44,82.86a1.63,1.63,0,0,0,1.19,2.76A36,36,0,0,0,26.78,80.5a52.12,52.12,0,0,0,22.81,5.12c23.52,0,42.58-14.66,42.58-32.76ZM43.09,91.79c6.45,11.78,21.6,20,39.26,20a51.82,51.82,0,0,0,22.79-5.12,35.92,35.92,0,0,0,18.16,5.12,1.61,1.61,0,0,0,1.5-1,1.64,1.64,0,0,0-.32-1.78,46.63,46.63,0,0,1-7.32-11.16,27.73,27.73,0,0,0,7.78-18.84c0-13.7-11-25.43-26.48-30.34"/>
    <path class="cls-2" d="M31.18,47.76a5.1,5.1,0,1,1-5.1,5.1A5.09,5.09,0,0,1,31.18,47.76Z"/>
    <path class="cls-2" d="M49.59,47.76a5.1,5.1,0,1,1-5.1,5.1A5.09,5.09,0,0,1,49.59,47.76Z"/>
    <path class="cls-2" d="M68,47.76a5.1,5.1,0,1,1-5.1,5.1A5.1,5.1,0,0,1,68,47.76Z"/>
</svg>
