<svg xmlns="http://www.w3.org/2000/svg" viewBox="0 0 131.92 131.92">
    <defs>
        <style>
            .cls-2{
                fill:none;stroke:#FBB967;
                stroke-linecap:round;
                stroke-linejoin:round;
                stroke-width:5px;
                fill-rule:evenodd;}
        </style>
    </defs>
    <path class="cls-2" d="M92.88,73V16.6a2.51,2.51,0,0,0-2.49-2.51H82.94A12.54,12.54,0,0,0,70.44,26.6V57.83a1.28,1.28,0,0,0,1.24,1.25h8.75V75.24M39,14.09V41.58a7.53,7.53,0,0,0,5,7.07V74m12.78,1.54V48.65a7.53,7.53,0,0,0,5-7.07V14.09M35.84,52.5c-8.66,2.27-15.23,5.66-17.58,10.18L8.49,92h0a9.38,9.38,0,0,0-.69,3.48c0,12.36,26,22.38,58.16,22.38s58.17-10,58.17-22.38a9.2,9.2,0,0,0-.7-3.48h0l-9.76-29.29c-1.76-3.68-6.35-6.61-12.62-8.8m0,7.4c4.51,2.09,7.14,4.61,7.14,7.31,0,17.71-84.81,17.46-84.81,0,0-3.64,4.77-6.93,12.46-9.31m10.4-45.19v25m7.76-25v25"/>
</svg>
