<svg xmlns="http://www.w3.org/2000/svg" viewBox="0 0 131.92 131.92">
    <defs>
        <style>
            .cls-2{
                fill:none;stroke:#FBB967;
                stroke-linecap:round;
                stroke-linejoin:round;
                stroke-width:5px;
                fill-rule:evenodd;}
        </style>
    </defs>
    <path class="cls-2" d="M110.82,23.94a29.45,29.45,0,0,1,9.36,13.94,31.7,31.7,0,0,1,.76,16.67A28.74,28.74,0,0,1,113,69L71,112.58a6.89,6.89,0,0,1-10,0l-42-43.34A30.07,30.07,0,0,1,11,54.55a31.7,31.7,0,0,1,.76-16.67,29.47,29.47,0,0,1,9.37-13.94,27.79,27.79,0,0,1,13.28-6.32A29.55,29.55,0,0,1,49,18.72a30.94,30.94,0,0,1,12.63,8.07L66,31.13l4.35-4.34A30.91,30.91,0,0,1,83,18.72a29.51,29.51,0,0,1,14.58-1.1,27.82,27.82,0,0,1,13.29,6.32ZM57.36,42.64v13h-13V71.35h13v13H73.09v-13h13V55.62h-13v-13Z"/>

</svg>
