<svg
   clip-rule="evenodd"
   fill-rule="evenodd"
   image-rendering="optimizeQuality"
   shape-rendering="geometricPrecision"
   text-rendering="geometricPrecision"
   version="1.1"
   viewBox="0 0 2509.9894 3833.0002"
   id="svg86"
   sodipodi:docname="paragraphZeichen.svg"
   inkscape:version="1.2.1 (9c6d41e410, 2022-07-14)"
   xmlns:inkscape="http://www.inkscape.org/namespaces/inkscape"
   xmlns:sodipodi="http://sodipodi.sourceforge.net/DTD/sodipodi-0.dtd"
   xmlns:xlink="http://www.w3.org/1999/xlink"
   xmlns="http://www.w3.org/2000/svg"
   xmlns:svg="http://www.w3.org/2000/svg">
  <sodipodi:namedview
     id="namedview88"
     pagecolor="#505050"
     bordercolor="#eeeeee"
     borderopacity="1"
     inkscape:showpageshadow="0"
     inkscape:pageopacity="0"
     inkscape:pagecheckerboard="0"
     inkscape:deskcolor="#505050"
     inkscape:document-units="mm"
     showgrid="false"
     inkscape:zoom="0.97614413"
     inkscape:cx="-96.297255"
     inkscape:cy="96.297255"
     inkscape:window-width="3840"
     inkscape:window-height="1009"
     inkscape:window-x="-8"
     inkscape:window-y="-8"
     inkscape:window-maximized="1"
     inkscape:current-layer="svg86" />
  <path
     d="m 2349.9573,662 -786,90 c -26,-77 -62,-132 -107,-165 -45,-32 -106,-48 -182,-48 -90,0 -157,17 -199,52 -42,35 -63,79 -63,132 0,45 19,85 58,120 68,61 228,136 480,225 359,128 609,254 750,376 140,124 209,286 209,485 0,117 -27,224 -80,321 -54,96 -140,194 -259,294 72,77 126,155 161,233 34,79 52,169 52,269 0,139 -37,268 -110,389 -73,121 -189,217 -346,290 -157,72 -369,108 -635,108 -169,0 -320.00003,-14 -452.00003,-42 -132,-28 -241,-66 -327,-116 -85,-49 -155,-105 -211,-170 -55,-65 -96,-127 -124,-186 -28,-59 -52,-139 -74,-241 l 774,-79 c 49,99 105,171 167.00003,218 63,45 140,69 231,69 94,0 165,-22 212,-65 47,-42 71,-95 71,-157 0,-54 -28,-107 -84,-162 -78,-75 -287,-178 -627.00003,-309 -339,-131 -565,-261 -679,-390 C 56.957265,2074 -0.04273497,1937 -0.04273497,1792 c 0,-115 30.99999997,-220 91.99999997,-317 61.000005,-97 165.000005,-196 313.000005,-297 -69,-74 -121,-147 -152,-219 -32,-72 -47,-152 -47,-241 0,-115 28,-220 83,-315 56,-95 127,-171 216,-228 89,-57 179,-98 271,-124 124,-34 284.00003,-51 480.00003,-51 260,0 456,23 585,68 129,47 235,117 316,213 82,96 147,223 193,381 z M 782.95727,1450 c -70,92 -106,166 -106,222 0,34 12,64 35,90 38,42 132,96 282,163 l 789.00003,346 c 61,-91 92,-163 92,-218 0,-44 -18,-83 -55,-118 -54,-51 -211,-128 -473,-235 -262,-105 -450.00003,-189 -564.00003,-250 z"
     id="path56" />
  <path
     d="m 2304.9573,625 -754,88 c -25,-76 -59,-130 -102,-162 -44,-32 -102,-48 -175,-48 -86,0 -150,17 -190,51 -41,34 -61,78 -61,130 0,45 18,84 55,119 65,60 219,134 460,222 345,126 585,250 720,370 133,122 200,282 200,479 0,116 -26,221 -77,316 -51,95 -134,192 -248,291 69,75 121,152 154,229 33,78 50,166 50,266 0,136 -35,264 -105,383 -70,119 -181,214 -332,286 -151,71 -354,106 -608,106 -163,0 -307.00003,-14 -434.00003,-41 -126,-28 -230,-65 -313,-114 -82,-49 -149,-105 -202,-168 -53,-64 -93,-125 -120,-184 -26,-58 -50,-137 -70,-237 l 741,-78 c 47,98 101,169 161.00003,215 60,45 134,67 221,67 90,0 158,-20 203,-63 45,-41 68,-94 68,-155 0,-53 -27,-106 -81,-160 -74,-74 -274,-175 -600.00003,-304 -325,-130 -542,-258 -651,-385 -109,-128 -163.000005,-263 -163.000005,-406 0,-113 29,-217 88.000005,-312 58,-95 158,-193 300,-293 -66,-73 -115,-145 -146,-216 -30,-71 -45,-150 -45,-238 0,-113 27,-216 80,-310 53,-94 122,-168 207,-225 85,-56 172,-97 259,-122 120,-34 273.00003,-51 461.00003,-51 249,0 437,23 560,68 124,46 226,115 304,209 79,95 140,221 185,377 z M 802.95727,1401 c -68,91 -102,164 -102,219 0,34 11,63 33,89 37,41 127,95 271.00003,161 l 756,341 c 59,-90 88,-161 88,-215 0,-43 -17,-82 -53,-116 -51,-50 -202,-127 -453,-232 -251,-104 -431.00003,-186 -540.00003,-247 z"
     id="path66" />
</svg>
