<?xml version="1.0" encoding="UTF-8"?>
<svg viewBox="0 0 376.17044 276.76865" xmlns="http://www.w3.org/2000/svg">
 <defs>
  <filter id="c" x="-.17736" y="-1.8919" width="1.3547" height="4.7838">
   <feGaussianBlur stdDeviation="87.8378"/>
  </filter>
  <linearGradient id="b" x1="911.97" x2="989.11" gradientUnits="userSpaceOnUse">
   <stop stop-color="#666" offset="0"/>
   <stop stop-color="#999" stop-opacity=".8745" offset=".2382"/>
   <stop stop-color="#ccc" offset=".5009"/>
   <stop stop-color="#999" stop-opacity=".498" offset=".7509"/>
   <stop stop-color="#808080" offset="1"/>
  </linearGradient>
  <radialGradient id="a" cx="950.54" cy="155.58" r="57.143" gradientTransform="matrix(.99988 .01523 -.05314 3.4896 8.3779 -383.04)" gradientUnits="userSpaceOnUse">
   <stop stop-color="#ccc" offset="0"/>
   <stop stop-color="#999" offset="1"/>
  </radialGradient>
 </defs>
 <g transform="matrix(.30449 0 0 .30449 -30.314 -28.345)">
  <path transform="matrix(.25493 0 0 .44198 -55.743 519.52)" d="m2008.6 825.22c0 30.77-266.07 55.714-594.29 55.714s-594.29-24.944-594.29-55.714 266.07-55.714 594.29-55.714c328.21 0 594.29 24.944 594.29 55.714z" fill="#333" filter="url(#c)"/>
  <path transform="matrix(.25493 0 0 .44198 769.19 491.91)" d="m2008.6 825.22c0 30.77-266.07 55.714-594.29 55.714s-594.29-24.944-594.29-55.714 266.07-55.714 594.29-55.714c328.21 0 594.29 24.944 594.29 55.714z" fill="#333" filter="url(#c)"/>
  <path d="m339.23 288.92c318.99-193.72 549.95-118.27 771.43 0v225.71h-771.43z" fill="#666"/>
  <path d="m339.23 306.92c318.99-193.72 549.95-118.27 771.43 0v225.71h-771.43z" fill="#808080"/>
  <path transform="translate(-415.05 202.04)" d="m1168.6 55.219c0 22.091-18.548 40-41.429 40s-41.428-17.909-41.428-40 18.548-40 41.428-40 41.429 17.909 41.429 40z" fill="#fff"/>
  <g transform="scale(.8032,1.245)" fill="#fff" font-family="Sans" font-size="122.04" letter-spacing="0" word-spacing="0">
   <path d="m607.92 382.99-20.856-87.356h18.055l13.169 60.005 15.97-60.005h20.975l15.314 61.018 13.407-61.018h17.757l-21.213 87.356h-18.711l-17.4-65.309-17.34 65.309z"/>
   <path d="m710.65 382.99v-87.356h64.772v14.778h-47.134v19.366h43.857v14.718h-43.857v23.776h48.803v14.718z"/>
   <path d="m792.64 382.99v-86.641h17.638v71.923h43.857v14.718z"/>
   <path d="m922.66 350.88 17.102 5.4225c-2.622 9.5341-6.9818 16.615-13.08 21.243s-13.834 6.942-23.21 6.942c-11.6 0-21.134-3.9626-28.602-11.888s-11.203-18.76-11.203-32.505c-1e-5 -14.539 3.754-25.831 11.262-33.876s17.38-12.067 29.615-12.067c10.686 9e-5 19.366 3.1583 26.04 9.4745 3.9725 3.7343 6.9519 9.0972 8.9382 16.089l-17.459 4.1712c-1.0329-4.5286-3.188-8.1039-6.4653-10.726s-7.2599-3.9328-11.947-3.9328c-6.4753 7e-5 -11.729 2.324-15.761 6.9718s-6.0482 12.176-6.0482 22.584c-2e-5 11.044 1.9862 18.909 5.9588 23.597s9.1368 7.0314 15.493 7.0314c4.6876 1e-5 8.7197-1.4897 12.096-4.4691s5.7998-7.667 7.2698-14.063z"/>
   <path d="m951.38 339.85c0-8.8984 1.3308-16.367 3.9924-22.405 1.9863-4.4492 4.6975-8.4416 8.1338-11.977s7.2002-6.1574 11.292-7.8656c5.4424-2.304 11.719-3.456 18.83-3.4561 12.871 9e-5 23.17 3.9925 30.896 11.977s11.59 19.088 11.59 33.31c-1e-4 14.103-3.8336 25.136-11.5 33.101s-17.916 11.947-30.747 11.947c-12.99 0-23.319-3.9626-30.986-11.888s-11.501-18.84-11.501-32.744zm18.174-0.59589c-3e-5 9.8917 2.2842 17.39 6.8526 22.495s10.368 7.6571 17.4 7.6571 12.801-2.5325 17.31-7.5975c4.5087-5.065 6.7632-12.662 6.7632-22.792 0-10.011-2.1949-17.479-6.5845-22.405s-10.219-7.3889-17.489-7.3889-13.129 2.4928-17.578 7.4783-6.6739 12.504-6.6739 22.554z"/>
   <path d="m1049.6 382.99v-87.356h26.398l15.85 59.588 15.672-59.588h26.457v87.356h-16.387v-68.765l-17.34 68.765h-16.983l-17.28-68.765v68.765z"/>
   <path d="m1151.6 382.99v-87.356h64.772v14.778h-47.134v19.366h43.857v14.718h-43.857v23.776h48.803v14.718z"/>
  </g>
  <g transform="translate(-650.2 86.269)">
   <path d="m935.56 149.51h29.957a23.593 23.593 0 0 1 23.593 23.593v609.96a23.593 23.593 0 0 1 -23.593 23.593h-29.957a23.593 23.593 0 0 1 -23.593 -23.593v-609.96a23.593 23.593 0 0 1 23.593 -23.593" fill="url(#b)"/>
   <path d="m1007.7 151.07c0 39.525-43.581 35.826-58.571 35.826s-55.714 3.6994-55.714-35.826 40.724-122.99 55.714-122.99 58.571 83.47 58.571 122.99z" fill="url(#a)"/>
  </g>
  <g transform="translate(198.07 65.012)">
   <path d="m935.56 149.51h29.957a23.593 23.593 0 0 1 23.593 23.593v609.96a23.593 23.593 0 0 1 -23.593 23.593h-29.957a23.593 23.593 0 0 1 -23.593 -23.593v-609.96a23.593 23.593 0 0 1 23.593 -23.593" fill="url(#b)"/>
   <path d="m1007.7 151.07c0 39.525-43.581 35.826-58.571 35.826s-55.714 3.6994-55.714-35.826 40.724-122.99 55.714-122.99 58.571 83.47 58.571 122.99z" fill="url(#a)"/>
  </g>
  <path d="m752.14 248.51c0.036 0.68177 0.062 1.3721 0.062 2.0625 0 22.091-18.557 40-41.438 40-18.554 0-34.256-11.766-39.531-28 1.1258 21.12 19.221 37.906 41.375 37.906 22.88 0 41.438-17.909 41.438-40 0-4.1765-0.6765-8.184-1.9063-11.969z" fill="#b3b3b3"/>
 </g>
</svg>
