<svg
   viewBox="0 0 582.22388 526.17072"
   xmlns="http://www.w3.org/2000/svg"
   xmlns:svg="http://www.w3.org/2000/svg">
  <defs
     id="defs102" />
  <g
     fill="#006400"
     id="g40"
     transform="translate(-5.9089496,-279.85771)">
    <g
       fill="#006400"
       id="g38">
      <g
         fill="#006400"
         id="g36">
        <g
           fill="#006400"
           id="g34">
          <g
             fill="#006400"
             id="g32">
            <g
               fill="#006400"
               id="g30">
              <g
                 fill="#006400"
                 id="g28">
                <g
                   fill="#006400"
                   id="g26">
                  <g
                     transform="matrix(0.12804,-0.05429,0.06737,0.17194,327.86,-337.06)"
                     fill="#006400"
                     id="g24">
                    <path
                       d="m 79.486,3712.2 c -150.66,-195 -943.77,-319.31 -1345.7,-281.81 -595.23,55.659 -772.06,310.7 -753.02,546.41 25.436,312.49 271.89,393.11 565.45,368.92 493.91,-40.603 1108,-838.77 1533.3,-633.51 z"
                       fill="#006400"
                       fill-rule="evenodd"
                       opacity="0.9"
                       id="path22" />
                  </g>
                </g>
              </g>
            </g>
          </g>
        </g>
      </g>
    </g>
  </g>
  <g
     transform="matrix(2.1411,0,0,2.1411,-657.40895,-601.22771)"
     id="g68">
    <g
       fill="#f08080"
       id="g52">
      <path
         transform="matrix(0.79454,0.48747,-0.51076,0.75832,321.5,66.673)"
         d="m 355.93,328.94 a 57.84,77.416677 0 1 1 -115.68,0 57.84,77.416677 0 1 1 115.68,0 z"
         id="path42" />
      <path
         transform="matrix(0.73044,-0.55905,0.57998,0.70408,71.732,396.48)"
         d="m 355.93,328.94 a 57.84,77.416677 0 1 1 -115.68,0 57.84,77.416677 0 1 1 115.68,0 z"
         id="path44" />
      <path
         transform="matrix(0.37998,-0.81061,0.87324,0.35273,-22.383,522.34)"
         d="m 355.93,328.94 a 57.84,77.416677 0 1 1 -115.68,0 57.84,77.416677 0 1 1 115.68,0 z"
         id="path46" />
      <path
         transform="matrix(0.81538,0,0,0.83908,190.82,69.755)"
         d="m 355.93,328.94 a 57.84,77.416677 0 1 1 -115.68,0 57.84,77.416677 0 1 1 115.68,0 z"
         id="path48" />
      <path
         transform="matrix(0.49336,0.75586,-0.75428,0.49438,591.84,11.064)"
         d="m 355.93,328.94 a 57.84,77.416677 0 1 1 -115.68,0 57.84,77.416677 0 1 1 115.68,0 z"
         id="path50" />
    </g>
    <g
       fill="#ffffff"
       id="g64">
      <path
         transform="matrix(0.46881,0.28763,-0.30137,0.44744,365.9,211.4)"
         d="m 355.93,328.94 a 57.84,77.416677 0 1 1 -115.68,0 57.84,77.416677 0 1 1 115.68,0 z"
         id="path54" />
      <path
         transform="matrix(0.43099,-0.32986,0.34221,0.41543,218.53,406.01)"
         d="m 355.93,328.94 a 57.84,77.416677 0 1 1 -115.68,0 57.84,77.416677 0 1 1 115.68,0 z"
         id="path56" />
      <path
         transform="matrix(0.22421,-0.47829,0.51524,0.20813,162.99,480.26)"
         d="m 355.93,328.94 a 57.84,77.416677 0 1 1 -115.68,0 57.84,77.416677 0 1 1 115.68,0 z"
         id="path58" />
      <path
         transform="matrix(0.48111,0,0,0.49509,288.79,213.22)"
         d="m 355.93,328.94 a 57.84,77.416677 0 1 1 -115.68,0 57.84,77.416677 0 1 1 115.68,0 z"
         id="path60" />
      <path
         transform="matrix(0.2911,0.44598,-0.44506,0.29171,525.41,178.59)"
         d="m 355.93,328.94 a 57.84,77.416677 0 1 1 -115.68,0 57.84,77.416677 0 1 1 115.68,0 z"
         id="path62" />
    </g>
    <path
       d="m 461.66,419.67 a 28.082,25.445 0 0 1 -56.163,0 28.082,25.445 0 1 1 56.163,0 z"
       fill="#f0e060"
       id="path66" />
  </g>
  <path
     d="m 187.35235,304.45706 c -18.39931,14.43808 -46.18915,9.73552 -62.07097,-10.50357 -15.88182,-20.23909 -13.84052,-48.35039 4.55828,-62.78808 18.39879,-14.43768 46.18966,-9.73591 62.07147,10.50318 15.88182,20.23909 13.84052,48.35039 -4.55878,62.78847 z"
     id="path70"
     style="stroke-width:0.677568" />
  <path
     d="m 228.21606,210.18236 c -14.31066,11.22949 -35.01467,8.73177 -46.24417,-5.57888 -11.2295,-14.31065 -8.73138,-35.01497 5.57888,-46.24416 14.31025,-11.22919 35.01506,-8.73209 46.24456,5.57856 11.22949,14.31065 8.73138,35.01498 -5.57927,46.24448 z"
     id="path72"
     style="stroke-width:0.502474" />
  <path
     d="m 108.63856,283.36884 c -24.308461,-37.43681 -14.627527,-85.61865 21.62485,-107.61663 36.25237,-21.99799 85.34554,-9.48209 109.65481,27.95596 24.30927,37.43806 14.62752,85.61865 -21.62485,107.61663 -16.4184,9.96271 -36.3664,13.20925 -55.91107,9.10046 l 11.89636,-76.88634 z"
     fill="#dc143c"
     id="path74"
     style="stroke-width:0.461335" />
  <path
     d="m 202.60163,134.36835 c -2.45927,0.3253 -2.06761,-3.24355 -1.11415,-4.41827 2.51391,-3.09787 7.27399,-1.73466 9.45608,0.98723 3.72388,4.64497 1.53965,11.40519 -3.08855,14.49385 -6.65357,4.44047 -15.5897,1.36022 -19.53164,-5.18988 -5.19343,-8.62932 -1.18906,-19.79511 7.29148,-24.56961 10.59186,-5.96327 24.01115,-1.02239 29.60739,9.3928 6.74249,12.5483 0.85833,28.23327 -11.49413,34.64516 -1.98072,1.02817 -4.08572,1.81412 -6.2541,2.34127"
     fill="none"
     stroke="#000000"
     stroke-miterlimit="4.1"
     stroke-width="3.30184"
     id="path76" />
  <path
     d="m 257.13409,170.91836 c 0.0114,2.5924 3.62548,1.63608 4.69914,0.46897 2.8314,-3.0773 0.76046,-7.78712 -2.34481,-9.62214 -5.29922,-3.13159 -11.94227,0.17083 -14.46688,5.43225 -3.62957,7.5639 0.79396,16.32515 8.08253,19.38776 9.60223,4.035 20.51871,-1.82967 24.23477,-11.33372 4.64132,-11.87019 -2.32562,-24.97815 -13.82055,-29.15355 -13.8492,-5.03067 -29.14752,3.47544 -34.00248,17.23488 -0.77852,2.20633 -1.29052,4.50371 -1.52755,6.8266"
     fill="none"
     stroke="#000000"
     stroke-miterlimit="4.1"
     stroke-width="3.43848"
     id="path78" />
  <path
     d="m 126.84234,272.5083 c -4.00626,-6.383 -2.07958,-14.80497 4.30341,-18.81124 6.383,-4.00626 14.80497,-2.07958 18.81124,4.30341 l -11.55732,7.25391 z"
     fill="#ffffff"
     id="path80"
     style="stroke-width:0.502474" />
  <path
     d="m 174.10206,180.88107 c -3.67991,2.88756 -9.00378,2.24526 -11.89134,-1.43465 -2.88757,-3.67991 -2.24526,-9.00378 1.43465,-11.89134 3.67991,-2.88757 9.00378,-2.24526 11.89134,1.43465 2.88757,3.67991 2.24526,9.00377 -1.43465,11.89134 z"
     fill="#ffffff"
     id="path82"
     style="stroke-width:0.31188" />
  <path
     d="m 195.54206,292.04107 c -3.67991,2.88756 -9.00378,2.24526 -11.89134,-1.43465 -2.88757,-3.67991 -2.24526,-9.00378 1.43465,-11.89134 3.67991,-2.88757 9.00378,-2.24526 11.89134,1.43465 2.88757,3.67991 2.24526,9.00377 -1.43465,11.89134 z"
     fill="#ffffff"
     id="path84"
     style="stroke-width:0.31188" />
  <path
     d="m 209.76206,201.93107 c -3.67991,2.88756 -9.00378,2.24526 -11.89134,-1.43465 -2.88757,-3.67991 -2.24526,-9.00378 1.43465,-11.89134 3.67991,-2.88757 9.00378,-2.24526 11.89134,1.43465 2.88757,3.67991 2.24526,9.00377 -1.43465,11.89134 z"
     fill="#ffffff"
     id="path86"
     style="stroke-width:0.31188" />
  <path
     d="m 217.91779,248.17948 c -6.7464,5.29399 -16.50684,4.11661 -21.80084,-2.62979 -5.29399,-6.7464 -4.11661,-16.50684 2.62979,-21.80084 6.7464,-5.29399 16.50684,-4.11661 21.80084,2.62979 5.29399,6.7464 4.11661,16.50684 -2.62979,21.80084 z"
     fill="#ffffff"
     id="path88"
     style="stroke-width:0.571781" />
  <path
     d="m 106.2159,201.85902 c -6.746396,5.29399 -8.053867,14.88872 -2.92035,21.4307 5.13351,6.54198 14.76387,7.55364 21.51027,2.25965 6.7464,-5.294 8.05387,-14.88872 2.92035,-21.4307 -5.13351,-6.54198 -14.76387,-7.55365 -21.51027,-2.25965 z"
     fill="#ffffff"
     id="path90"
     style="stroke-width:0.56305" />
  <path
     d="m 155.49197,207.44649 c -2.45322,1.92499 -2.9286,5.41385 -1.0618,7.79268 1.8668,2.37884 5.36879,2.74674 7.82202,0.82174 2.45322,-1.92499 2.9286,-5.41385 1.06179,-7.79268 -1.8668,-2.37883 -5.36879,-2.74673 -7.82201,-0.82174 z"
     fill="#ffffff"
     id="path92"
     style="stroke-width:0.204743" />
  <path
     d="m 221.09197,280.37649 c -2.45322,1.92499 -2.9286,5.41385 -1.0618,7.79268 1.8668,2.37884 5.36879,2.74674 7.82202,0.82174 2.45322,-1.92499 2.9286,-5.41385 1.06179,-7.79268 -1.8668,-2.37883 -5.36879,-2.74673 -7.82201,-0.82174 z"
     fill="#ffffff"
     id="path94"
     style="stroke-width:0.204743" />
  <path
     d="m 236.92197,238.04649 c -2.45322,1.92499 -2.9286,5.41385 -1.0618,7.79268 1.8668,2.37884 5.36879,2.74674 7.82202,0.82174 2.45322,-1.92499 2.9286,-5.41385 1.06179,-7.79268 -1.8668,-2.37883 -5.36879,-2.74673 -7.82201,-0.82174 z"
     fill="#ffffff"
     id="path96"
     style="stroke-width:0.204743" />
</svg>
