<?xml version="1.0" encoding="UTF-8"?>
<svg viewBox="0 0 425.04 394.96" xmlns="http://www.w3.org/2000/svg" xmlns:xlink="http://www.w3.org/1999/xlink">
 <defs>
  <linearGradient id="n" x1=".34544" x2=".72312" y1=".0888" y2=".0888" xlink:href="#k"/>
  <linearGradient id="r" x1=".15404" x2=".32316" y1=".67733" y2=".72613" xlink:href="#k"/>
  <linearGradient id="q" x1=".77101" x2=".15623" y1="-1.1634" y2="2.5122" xlink:href="#l"/>
  <linearGradient id="p" x1=".8068" x2=".081755" y1=".31102" y2=".8883" xlink:href="#l"/>
  <linearGradient id="o" x1=".80013" x2=".65123" y1=".74488" y2=".78894" xlink:href="#k"/>
  <linearGradient id="m" x1=".32378" x2=".70889" y1=".11564" y2=".10529">
   <stop stop-color="#aca793" offset="0"/>
   <stop stop-color="#aca793" stop-opacity="0" offset="1"/>
  </linearGradient>
  <linearGradient id="k">
   <stop stop-color="#76705a" offset="0"/>
   <stop stop-color="#c8c4b7" stop-opacity="0" offset="1"/>
  </linearGradient>
  <linearGradient id="l">
   <stop stop-color="#784421" offset="0"/>
   <stop stop-color="#4d2c15" offset="1"/>
  </linearGradient>
  <radialGradient id="t" cx="436.73" cy="537.53" r="212.52" gradientTransform="matrix(1.2279e-7 .17872 -.99562 6.8401e-7 909.94 480.92)" gradientUnits="userSpaceOnUse">
   <stop offset="0"/>
   <stop stop-opacity="0" offset="1"/>
  </radialGradient>
  <radialGradient id="s" cx="397" cy="684.27" r="12.253" gradientTransform="matrix(.98328 0 1.1864e-6 1 7.0247 -1.9125e-6)" gradientUnits="userSpaceOnUse" xlink:href="#l"/>
 </defs>
 <g stroke-width="4">
  <g fill-rule="evenodd">
   <g stroke="#000">
    <g stroke-linejoin="round">
     <path d="m357.31 339.46c-24.995-51.892-32.62-95.942-21.658-115.92 10.695-19.496 63.754 5.4789 83.506-26.734 19.47-31.754-31.662-193.85-214.54-194.8-180.36-0.93918-214.33 167.06-199.53 195.75 14.543 28.2 63.723 7.2347 83.516 22.318 19.794 15.083 5.1119 83.528-15.336 123.81-20.194 39.783 75.405 49.962 147.04 49.019 71.635-0.94269 161.27-3.058 137-53.439z" fill="url(#r)"/>
     <path d="m357.31 339.46c-24.995-51.892-32.62-95.942-21.658-115.92 10.695-19.496 63.754 5.4789 83.506-26.734 19.47-31.754-31.662-193.85-214.54-194.8-180.36-0.93918-214.33 167.06-199.53 195.75 14.543 28.2 63.723 7.2347 83.516 22.318 19.794 15.083 5.1119 83.528-15.336 123.81-20.194 39.783 75.405 49.962 147.04 49.019 71.635-0.94269 161.27-3.058 137-53.439z" fill="url(#o)"/>
     <path d="m357.31 339.46c-24.995-51.892-32.62-95.942-21.658-115.92 10.695-19.496 63.754 5.4789 83.506-26.734 19.47-31.754-31.662-193.85-214.54-194.8-180.36-0.93918-214.33 167.06-199.53 195.75 14.543 28.2 63.723 7.2347 83.516 22.318 19.794 15.083 5.1119 83.528-15.336 123.81-20.194 39.783 75.405 49.962 147.04 49.019 71.635-0.94269 161.27-3.058 137-53.439z" fill="url(#t)"/>
     <path d="m303.55 227.32c40.313-4.824 95.86 1.7018 115.61-30.511 19.47-31.754-31.662-193.85-214.54-194.8-180.36-0.93918-214.33 167.06-199.53 195.75 14.543 28.2 74.884 30.192 111.84 31.76 36.929 1.5669 146.92 2.5513 186.61-2.1985z" fill="#5fbf00"/>
     <path d="m214.5 279.78c-45.64 1.5738-57.527 81.727-56.276 110.95 16.792 1.0983 46.13 2.373 62.089 2.163 11.959-0.15741 39.886-1.0478 52.235-1.4897-2.2949-34.821-12.407-113.2-58.047-111.62z" fill="url(#m)"/>
     <path d="m214.04 284.33c-37.01 1.2781-49.222 78.676-39.875 107.56 15.585 0.91364 31.384 1.1944 46.156 1 10.91-0.14356 22.22-0.29187 33.5-0.65625 11.543-25.143-3.3682-109.16-39.781-107.91z" fill="url(#p)"/>
     <path d="m189.8 299.03l1.3971 93.63m24.769-108.31l0.2257 108.59m26.406-87.672l-2.407 87.313" fill="none"/>
     <path d="m175.95 330.58l76.404-0.585 3.0487 13.709-81.962-1.4633 2.5093-11.661z" fill="url(#q)"/>
    </g>
    <path d="m271.92 296.81c6.0544 5.9272 45.118 0.5805 47.909-5.0052 2.8956-5.7955-5.5279-39.251-31.852-36.354-26.064 2.8691-22.248 35.299-16.057 41.359z" fill="url(#n)"/>
    <path d="m271.56 296.43c4.7403 4.6225 35.325 0.45276 37.51-3.9035 2.2671-4.5198-4.3281-30.611-24.938-28.352-20.406 2.2376-17.419 27.529-12.572 32.255z" fill="#483e37"/>
   </g>
   <path d="m283.14 285.99c2.3049 2.2048 17.176 0.21594 18.239-1.8618 1.1023-2.1558-2.1045-14.6-12.126-13.522-9.9221 1.0673-8.4695 13.13-6.1129 15.384z" fill="#fff" fill-opacity=".392"/>
  </g>
  <g stroke-linejoin="round">
   <g fill="#fff">
    <path d="m72.617 124.5a16.136 26.557 0 1 1 -32.272 -10.512 16.136 26.557 0 1 1 32.272 10.512z"/>
    <path d="m145.64 80.87a15.937 18.923 0 1 1 -31.874 -27.904 15.937 18.923 0 1 1 31.874 27.904z"/>
    <path d="m282.76 129.11a32.888 26.032 0 1 1 -65.775 9.9721 32.888 26.032 0 1 1 65.775 -9.9721z"/>
    <path d="m306.81 38.724a20.875 15.963 0 1 1 -41.751 4.8191 20.875 15.963 0 1 1 41.751 -4.8191z"/>
    <path d="m374.03 167.81a17.132 24.934 0 1 1 -34.264 -33.83 17.132 24.934 0 1 1 34.264 33.83z"/>
    <path d="m167.42 169.44a26.525 28.243 0 1 1 -53.051 22.638 26.525 28.243 0 1 1 53.051 -22.638z"/>
    <path d="m213.4 73.159a13.026 11.837 0 1 1 -26.053 -1.8748 13.026 11.837 0 1 1 26.053 1.8748z"/>
    <path d="m331.07 87.891a9.985 11.389 0 1 1 -19.97 -6.5903 9.985 11.389 0 1 1 19.97 6.5903z"/>
    <path d="m215.6 14.769a34.111 8.9403 0 1 1 -68.222 1.2551 34.111 8.9403 0 1 1 68.222 -1.2551z"/>
   </g>
   <path d="m247.76 337.52a10.253 10.253 0 1 1 -20.506 0 10.253 10.253 0 1 1 20.506 0z" fill="url(#s)" stroke="#000"/>
  </g>
 </g>
</svg>
