<?xml version="1.0" encoding="UTF-8"?>
<svg viewBox="0 0 101.70866 87.458153" xmlns="http://www.w3.org/2000/svg" xmlns:xlink="http://www.w3.org/1999/xlink">
 <defs>
  <filter id="h" x="-.19665" y="-.20898" width="1.3933" height="1.418">
   <feGaussianBlur stdDeviation=".8891"/>
  </filter>
  <filter id="b" x="-.21936" y="-.17231" width="1.4387" height="1.3446">
   <feGaussianBlur stdDeviation=".89736"/>
  </filter>
  <filter id="i" x="-.18598" y="-.21986" width="1.372" height="1.4397">
   <feGaussianBlur stdDeviation="1.26885"/>
  </filter>
  <filter id="a" x="-.19621" y="-.21012" width="1.3924" height="1.4202">
   <feGaussianBlur stdDeviation="2.05468"/>
  </filter>
  <filter id="ad" x="-.12807" y="-.14079" width="1.2561" height="1.2816">
   <feGaussianBlur stdDeviation="3.01566"/>
  </filter>
  <filter id="ae" x="-.23022" y="-.6193" width="1.4604" height="2.2386">
   <feGaussianBlur stdDeviation="1.66485"/>
  </filter>
  <filter id="s" x="-.34947" y="-.20718" width="1.6989" height="1.4144">
   <feGaussianBlur stdDeviation="1.2448"/>
  </filter>
  <filter id="j" x="-.24505" y="-.32963" width="1.4901" height="1.6593">
   <feGaussianBlur stdDeviation="1.00133"/>
  </filter>
  <filter id="t" x="-.27881" y="-.38406" width="1.5576" height="1.7681">
   <feGaussianBlur stdDeviation="2.8444"/>
  </filter>
  <filter id="u" x="-.19291" y="-.28712" width="1.3858" height="1.5742">
   <feGaussianBlur stdDeviation="2.97933"/>
  </filter>
  <filter id="v" x="-.41096" y="-.86908" width="1.8219" height="2.7382">
   <feGaussianBlur stdDeviation="10.87101"/>
  </filter>
  <linearGradient id="r">
   <stop stop-color="#d38d5f" offset="0"/>
   <stop stop-color="#d38d5f" stop-opacity="0" offset="1"/>
  </linearGradient>
  <linearGradient id="g">
   <stop stop-color="#000045" offset="0"/>
   <stop stop-color="#0ff" offset="1"/>
  </linearGradient>
  <linearGradient id="q">
   <stop stop-color="#338000" offset="0"/>
   <stop stop-color="#7fff2a" offset="1"/>
  </linearGradient>
  <linearGradient id="p" x1="179.49" x2="219.54" y1="150.51" y2="193.71" gradientUnits="userSpaceOnUse">
   <stop stop-color="#f2f2f2" offset="0"/>
   <stop stop-color="#f2f2f2" stop-opacity="0" offset="1"/>
  </linearGradient>
  <linearGradient id="ac" x1="137.13" x2="282.24" y1="163.93" y2="200.84" gradientUnits="userSpaceOnUse">
   <stop stop-color="#ff7f2a" offset="0"/>
   <stop stop-color="#ff7f2a" stop-opacity="0" offset="1"/>
  </linearGradient>
  <linearGradient id="ab" x1="172.78" x2="168.59" y1="128.29" y2="138.14" gradientUnits="userSpaceOnUse">
   <stop stop-color="#ffb380" offset="0"/>
   <stop stop-color="#ffb380" stop-opacity="0" offset="1"/>
  </linearGradient>
  <linearGradient id="z" x1="166.07" x2="163.55" y1="163.93" y2="168.13" gradientUnits="userSpaceOnUse">
   <stop stop-color="#deaa87" offset="0"/>
   <stop stop-color="#deaa87" stop-opacity="0" offset="1"/>
  </linearGradient>
  <linearGradient id="x" x1="132.52" x2="134.47" y1="157.64" y2="163.93" gradientUnits="userSpaceOnUse">
   <stop stop-color="#c87137" offset="0"/>
   <stop stop-color="#c87137" stop-opacity="0" offset="1"/>
  </linearGradient>
  <linearGradient id="c" x1="416.02" x2="402.6" y1="57.412" y2="56.153" gradientUnits="userSpaceOnUse">
   <stop stop-color="#450" offset="0"/>
   <stop stop-color="#aad400" offset="1"/>
  </linearGradient>
  <linearGradient id="e" x1="243.22" x2="264.31" y1="119.74" y2="138.38" gradientUnits="userSpaceOnUse">
   <stop stop-color="#f0f" offset="0"/>
   <stop stop-color="#f0f" stop-opacity="0" offset="1"/>
  </linearGradient>
  <linearGradient id="d" x1="401.13" x2="402.87" y1="99.753" y2="109.07" gradientUnits="userSpaceOnUse">
   <stop stop-color="#f00" offset="0"/>
   <stop stop-color="#f00" stop-opacity="0" offset="1"/>
  </linearGradient>
  <linearGradient id="k" x1="270.33" x2="285.92" y1="151.16" y2="134.88" gradientUnits="userSpaceOnUse">
   <stop stop-color="#3bfcb3" offset="0"/>
   <stop stop-color="#3bfcb3" stop-opacity="0" offset="1"/>
  </linearGradient>
  <linearGradient id="aa" x1="167.75" x2="167.33" y1="108.99" y2="116.12" gradientUnits="userSpaceOnUse" xlink:href="#r"/>
  <linearGradient id="y" x1="133.36" x2="123.71" y1="147.58" y2="142.96" gradientUnits="userSpaceOnUse" xlink:href="#r"/>
  <linearGradient id="w" x1="199.57" x2="218.25" y1="346.15" y2="353.73" gradientTransform="matrix(2.4882 0 0 1.8055 22.907 -515.12)" gradientUnits="userSpaceOnUse" xlink:href="#q"/>
  <linearGradient id="f" x1="199.57" x2="218.25" y1="346.15" y2="353.73" gradientTransform="matrix(1.9823 -1.5039 1.0912 1.4384 -65.289 -100.74)" gradientUnits="userSpaceOnUse" xlink:href="#q"/>
  <linearGradient id="o" x1="275.32" x2="286.22" y1="138.14" y2="171.9" gradientTransform="matrix(.84266 .70488 -.83738 .70932 159.97 -158.96)" gradientUnits="userSpaceOnUse" xlink:href="#g"/>
  <linearGradient id="n" x1="275.32" x2="286.22" y1="138.14" y2="171.9" gradientTransform="matrix(.35266 -.84602 .93575 .31884 52.307 333.57)" gradientUnits="userSpaceOnUse" xlink:href="#g"/>
  <linearGradient id="m" x1="275.32" x2="286.22" y1="138.14" y2="171.9" gradientTransform="matrix(-.54351 .75344 -.8394 -.48785 549.85 -3.5759)" gradientUnits="userSpaceOnUse" xlink:href="#g"/>
  <linearGradient id="l" x1="275.32" x2="286.22" y1="138.14" y2="171.9" gradientTransform="matrix(1.1483 -.37844 .313 .94975 -85.538 114.71)" gradientUnits="userSpaceOnUse" xlink:href="#g"/>
 </defs>
 <g transform="matrix(.5761 0 0 .5945 -36.215 -38.058)" fill-rule="evenodd">
  <g transform="translate(-109.55 23.71)">
   <path transform="translate(93.52 -25.582)" d="m244.07 188.26a24.533 23.904 0 1 1 -49.066 0 24.533 23.904 0 1 1 49.066 0z" fill="#483e37" stroke="#000" stroke-opacity=".56604" stroke-width="1.7087"/>
   <path transform="translate(-33.13 4.6131)" d="m358.56 158.27a12.162 11.952 0 1 1 -24.324 0 12.162 11.952 0 1 1 24.324 0z" fill="#fff" stroke="#000" stroke-opacity=".64906" stroke-width="1.7087"/>
   <path transform="matrix(.52778 -.84938 .84938 .52778 -1.9016 299.14)" d="m271.75 180.29 10.904-3.355 5.4518 5.4518-16.355-2.0968z" filter="url(#ae)" stroke="#000" stroke-width="1.7087"/>
   <path transform="matrix(-1 0 0 1 617.73 -36.905)" d="m291.04 191.61-7.5487 6.2906 1.6775 7.1293 5.8712-13.42z" fill="#f4e3d7" filter="url(#s)"/>
   <path transform="matrix(-1 0 0 1 580.83 -27.679)" d="m291.04 191.61-7.5487 6.2906 1.6775 7.1293 5.8712-13.42z" fill="#f4e3d7" filter="url(#s)"/>
   <path transform="matrix(2.0476 0 0 1.8667 -239.22 -212.81)" d="m259.17 205.87 8.8068 6.2906-2.9356-5.4518-5.8712-0.83875z" fill="#241f1c" filter="url(#j)" stroke="#000" stroke-width=".87401"/>
   <path transform="matrix(1.777 -1.0173 .92739 1.62 -347.76 75.733)" d="m259.17 205.87 8.8068 6.2906-2.9356-5.4518-5.8712-0.83875z" fill="#241f1c" filter="url(#j)" stroke="#000" stroke-width=".87401"/>
   <path transform="matrix(-1.1668 1.6826 -1.5339 -1.0637 942.9 -42.56)" d="m259.17 205.87 8.8068 6.2906-2.9356-5.4518-5.8712-0.83875z" fill="#241f1c" filter="url(#j)" stroke="#000" stroke-width=".87401"/>
   <path transform="matrix(-.09216 .97042 -1.0222 -.08749 525.09 -34.112)" d="m244.07 188.26a24.533 23.904 0 1 1 -49.066 0 24.533 23.904 0 1 1 49.066 0z" fill="url(#p)" stroke="#000" stroke-opacity=".56604" stroke-width="1.7088"/>
   <path transform="matrix(-.06617 .68947 -.73394 -.06216 466.59 21.752)" d="m244.07 188.26a24.533 23.904 0 1 1 -49.066 0 24.533 23.904 0 1 1 49.066 0z" fill="url(#p)" filter="url(#ad)" stroke="#000" stroke-width="9.3303"/>
   <path d="m306.98 173.58 15.936-17.614-3.355-3.355-15.936 18.033 3.355 2.9356z" fill="#1a1a1a"/>
   <path d="m322.96 169.27-17.784-15.746-3.3187 3.3908 18.203 15.741 2.8994-3.3864z" fill="#1a1a1a"/>
  </g>
  <path d="m65.003 133.74 30.614-7.5487 110.29 58.293c1.0634 3.4723 1.7464 6.6276-3.7743 4.6131l-109.46-54.518-25.582 5.8712c-5.836-2.2366-2.3779-4.4733-2.0969-6.71z" fill="url(#ac)" stroke="#271e00" stroke-width="1.7087"/>
  <path d="m65.003 133.74 30.614-7.5487 110.29 58.293c1.0634 3.4723 1.7464 6.6276-3.7743 4.6131l-109.46-54.518-25.582 5.8712c-5.836-2.2366-2.3779-4.4733-2.0969-6.71z" fill="#f60" stroke="#271e00" stroke-width="1.7087"/>
  <path d="m65.003 133.74 30.614-7.5487 110.29 58.293c1.0634 3.4723 1.7464 6.6276-3.7743 4.6131l-109.46-54.518-25.582 5.8712c-5.836-2.2366-2.3779-4.4733-2.0969-6.71z" fill="#502d16" stroke="#271e00" stroke-width="1.7087"/>
  <path d="m182.01 171.9c5.2156-2.7235 7.0948-9.9046 8.8068-13.001l-66.261-34.808c-5.6494 3.1493-9.0182 7.0588-11.323 11.323l68.777 36.485z" fill="#a05a2c" stroke="#271600" stroke-width="1.7087"/>
  <path d="m190.81 158.48c3.8186-3.9619 7.2888-8.098 6.71-14.259l-54.938-26.42c-7.008 1.0998-12.041 4.1746-18.033 6.2906l66.261 34.388z" fill="#784421" stroke="#271200" stroke-width="1.7087"/>
  <path d="m197.52 144.64c4.07-2.6811 6.8299-7.1091 7.5487-14.259-20.282-5.5238-37.205-21.796-62.486-11.323l54.938 25.582z" fill="#a05a2c" stroke="#201700" stroke-width="1.7087"/>
  <path d="m190.81 158.48c3.8186-3.9619 7.2888-8.098 6.71-14.259l-54.938-26.42c-7.008 1.0998-12.041 4.1746-18.033 6.2906l66.261 34.388z" fill="url(#ab)" stroke="#271200" stroke-width="1.7087"/>
  <path d="m105.26 131.64c28.41-33.788 84.727-26.55 105.68-7.5487 2.1967 1.992-4.1937 7.5487-4.1937 7.5487-28.435-11.84-55.944-27.479-95.197 5.0325l-6.2906-5.0325z" fill="#502d16" stroke="#351900" stroke-width="1.7087"/>
  <path d="m105.26 131.64c28.41-33.788 84.727-26.55 105.68-7.5487 2.1967 1.992-4.1937 7.5487-4.1937 7.5487-28.435-11.84-55.944-27.479-95.197 5.0325l-6.2906-5.0325z" fill="url(#aa)" stroke="#351900" stroke-width="1.7087"/>
  <path d="m118.26 161.84 28.098-7.9681c11.671 2.3764 3.2719 4.7529 1.6775 7.1293l-27.679 7.1293c-6.1046-1.3246-3.4971-3.8938-2.0969-6.2906z" fill="#502d16" stroke="#241900" stroke-width="1.7087"/>
  <path d="m197.52 144.64c4.07-2.6811 6.8299-7.1091 7.5487-14.259-20.282-5.5238-37.205-21.796-62.486-11.323l54.938 25.582z" fill="#d45500" filter="url(#v)" stroke="#201700" stroke-width="1.7087"/>
  <path d="m177.81 162.67c4.07-2.6811 6.8299-7.1091 7.5487-14.259-20.282-5.5238-37.205-21.796-62.486-11.323l54.938 25.582z" fill="#784421" filter="url(#v)" stroke="#201700" stroke-width="1.7087"/>
  <path d="m157.68 155.96c5.8712 3.7743 21.807 9.2262 21.807 9.2262l-16.355-12.581-19.71-11.323 14.259 14.678z" fill="#2b1100" filter="url(#u)" stroke="#000" stroke-width="1.7087"/>
  <path d="m65.003 133.74 30.614-7.5487 110.29 58.293c1.0634 3.4723 1.7464 6.6276-3.7743 4.6131l-109.46-54.518-25.582 5.8712c-5.836-2.2366-2.3779-4.4733-2.0969-6.71z" fill="url(#z)" stroke="#271e00" stroke-width="1.7087"/>
  <path transform="matrix(-.64433 .36768 -.25475 -.92995 394 171.09)" d="m266.3 152.61c5.8712 3.7743 21.807 9.2262 21.807 9.2262l-16.355-12.581-19.71-11.323 14.259 14.678z" fill="#2b1100" filter="url(#u)" stroke="#000" stroke-width="2.0528"/>
  <path d="m150.97 130.8 23.485 14.259-17.194-16.775-6.2906 2.5162z" fill="#520" filter="url(#t)" stroke="#000" stroke-width="1.7087"/>
  <path transform="matrix(1.097 .14979 -.057502 .42109 -116.05 57.263)" d="m280.56 182.8 23.485 14.259-17.194-16.775-6.2906 2.5162z" fill="#520" filter="url(#t)" stroke="#000" stroke-width="2.491"/>
  <path d="m117 182.38 26.42-56.615c-3.2054-6.5086-7.4391-4.7908-11.742-2.5162l-16.775 43.195-3.7744 15.517 5.8712 0.41937z" fill="#502d16" stroke="#351e00" stroke-width="1.7087"/>
  <path d="m117 183.22 26.42-56.615c-3.2054-6.5086-7.4391-4.7908-11.742-2.5162l-16.775 43.195-3.7744 15.517 5.8712 0.41937z" fill="url(#y)" stroke="#351e00" stroke-width="1.7087"/>
  <path d="m118.26 161.84 28.098-7.9681c11.671 2.3764 3.2719 4.7529 1.6775 7.1293l-27.679 7.1293c-6.1046-1.3246-3.4971-3.8938-2.0969-6.2906z" fill="url(#x)" stroke="#241900" stroke-width="1.7087"/>
  <path transform="matrix(.75 0 0 .76923 -113.23 11.797)" d="m295.24 162.88a2.5162 2.7259 0 1 1 -5.0324 0 2.5162 2.7259 0 1 1 5.0324 0z"/>
  <path transform="matrix(.75 0 0 .76923 -91.842 22.281)" d="m295.24 162.88a2.5162 2.7259 0 1 1 -5.0324 0 2.5162 2.7259 0 1 1 5.0324 0z"/>
  <path transform="matrix(.75 0 0 .76923 -81.777 .47412)" d="m295.24 162.88a2.5162 2.7259 0 1 1 -5.0324 0 2.5162 2.7259 0 1 1 5.0324 0z"/>
  <path transform="matrix(.75 0 0 .76923 -70.874 31.508)" d="m295.24 162.88a2.5162 2.7259 0 1 1 -5.0324 0 2.5162 2.7259 0 1 1 5.0324 0z"/>
  <path transform="matrix(.75 0 0 .76923 -98.972 39.056)" d="m295.24 162.88a2.5162 2.7259 0 1 1 -5.0324 0 2.5162 2.7259 0 1 1 5.0324 0z"/>
  <path transform="matrix(.75 0 0 .76923 -16.775 60.864)" d="m295.24 162.88a2.5162 2.7259 0 1 1 -5.0324 0 2.5162 2.7259 0 1 1 5.0324 0z"/>
 </g>
 <g transform="matrix(.32136 -.14662 .20489 .28753 -49.143 70.312)">
  <path d="m392.53 51.96c1.2218-3.2403 1.3268-6.6402 10.065-8.8068 17.395-2.3393 22.552 4.3709 31.872 9.2262-11.156 6.6858-23.851 12.363-32.711 11.323-7.7864-1.8951-9.1899-6.5258-9.2262-11.742z" fill="url(#c)" fill-rule="evenodd"/>
  <path d="m389.6 53.637 34.388-1.2581" fill="none" stroke="#575700" stroke-width="2.8578"/>
 </g>
 <g transform="matrix(.53536 0 0 .54571 -258.05 -42.946)">
  <path d="m547.4 121.8c-8.8596 3.2014-16.202-3.514-23.932-7.6971 8.2216-2.046 15.816-6.1084 26.317-0.83268l8.3898 3.3998-10.774 5.13z" fill="url(#w)" fill-rule="evenodd"/>
  <g transform="matrix(.71571 -.6984 .6984 .71571 -22.25 541.93)">
   <path d="m736.15 91.931c-5.8516 9.1435-17.169 8.0884-27.09 9.6376 6.0688-7.6328 10.174-16.685 23.372-19.165l9.9812-2.7323-6.2628 12.259z" fill="#250" fill-rule="evenodd"/>
   <path d="m737.52 89.678c-5.1233 7.9052-15.032 6.993-23.718 8.3324 5.3134-6.5992 8.9079-14.425 20.463-16.569l8.7388-2.3623-5.4832 10.599z" fill="url(#f)" fill-rule="evenodd"/>
   <path d="m738.23 87.618c-3.9756 5.5927-12.694 5.841-20.201 7.4539 4.2247-4.7569 6.8693-10.168 16.832-12.55l7.4877-2.2847-4.1191 7.3806z" fill="#7fff2a" fill-rule="evenodd"/>
   <path d="m705.17 106.1c4.7446-4.1516 26.689-19.572 26.689-19.572" fill="none" stroke="#eaf200" stroke-width="1.8501"/>
  </g>
  <g transform="matrix(-.33849 .94097 -.94097 -.33849 977.68 -501.25)">
   <path d="m736.15 91.931c-5.8516 9.1435-17.169 8.0884-27.09 9.6376 6.0688-7.6328 10.174-16.685 23.372-19.165l9.9812-2.7323-6.2628 12.259z" fill="#250" fill-rule="evenodd"/>
   <path d="m737.52 89.678c-5.1233 7.9052-15.032 6.993-23.718 8.3324 5.3134-6.5992 8.9079-14.425 20.463-16.569l8.7388-2.3623-5.4832 10.599z" fill="url(#f)" fill-rule="evenodd"/>
   <path d="m738.23 87.618c-3.9756 5.5927-12.694 5.841-20.201 7.4539 4.2247-4.7569 6.8693-10.168 16.832-12.55l7.4877-2.2847-4.1191 7.3806z" fill="#7fff2a" fill-rule="evenodd"/>
   <path d="m705.17 106.1c4.7446-4.1516 26.689-19.572 26.689-19.572" fill="none" stroke="#eaf200" stroke-width="1.8501"/>
  </g>
  <g transform="matrix(.55955 0 0 .56391 335.2 100.62)">
   <path d="m392.53 51.96c1.2218-3.2403 1.3268-6.6402 10.065-8.8068 17.395-2.3393 22.552 4.3709 31.872 9.2262-11.156 6.6858-23.851 12.363-32.711 11.323-7.7864-1.8951-9.1899-6.5258-9.2262-11.742z" fill="url(#c)" fill-rule="evenodd"/>
   <path d="m389.6 53.637 34.388-1.2581" fill="none" stroke="#575700" stroke-width="3.2936"/>
  </g>
  <path transform="matrix(-.11685 .7097 .84509 .10849 491.52 -78.112)" d="m253.57 130.16c-0.50714 4.2962-5.2588 2.179-6.0578-0.71508-1.2437-4.5043 2.9716-8.3736 7.1722-8.725 6.162-0.51553 11.019 4.9828 11.123 10.885 0.13231 7.565-6.6344 13.384-13.974 13.266-3.565-0.05701-7.0363-1.4373-9.7186-3.7764" fill="url(#e)" fill-rule="evenodd"/>
  <path transform="matrix(-.11685 .7097 .84509 .10849 493.88 -75.051)" d="m253.57 130.16c-0.50714 4.2962-5.2588 2.179-6.0578-0.71508-1.2437-4.5043 2.9716-8.3736 7.1722-8.725 6.162-0.51553 11.019 4.9828 11.123 10.885 0.13231 7.565-6.6344 13.384-13.974 13.266-3.565-0.05701-7.0363-1.4373-9.7186-3.7764" fill="#ffafb3" fill-rule="evenodd" stroke="#df4b6f" stroke-width="2.3641"/>
  <path transform="matrix(.42837 -.39001 -.44828 -.38091 531.84 265.29)" d="m253.57 130.16c-0.50714 4.2962-5.2588 2.179-6.0578-0.71508-1.2437-4.5043 2.9716-8.3736 7.1722-8.725 6.162-0.51553 11.019 4.9828 11.123 10.885 0.13231 7.565-6.6344 13.384-13.974 13.266-3.565-0.05701-7.0363-1.4373-9.7186-3.7764" fill="#ffafb3" fill-rule="evenodd" stroke="#df4b6f" stroke-width="3.1823"/>
  <path transform="matrix(-.45909 -.3288 -.34878 .42673 731.13 142.95)" d="m253.57 130.16c-0.50714 4.2962-5.2588 2.179-6.0578-0.71508-1.2437-4.5043 2.9716-8.3736 7.1722-8.725 6.162-0.51553 11.019 4.9828 11.123 10.885 0.13231 7.565-6.6344 13.384-13.974 13.266-3.565-0.05701-7.0363-1.4373-9.7186-3.7764" fill="#ffafb3" fill-rule="evenodd" stroke="#df4b6f" stroke-width="3.3198"/>
  <path transform="matrix(-.77736 -.24105 -.2861 .5921 807.55 95.42)" d="m253.57 130.16c-0.50714 4.2962-5.2588 2.179-6.0578-0.71508-1.2437-4.5043 2.9716-8.3736 7.1722-8.725 6.162-0.51553 11.019 4.9828 11.123 10.885 0.13231 7.565-6.6344 13.384-13.974 13.266-3.565-0.05701-7.0363-1.4373-9.7186-3.7764" fill="#ffb6b9" fill-rule="evenodd" stroke="#f66183" stroke-width="2.5431"/>
  <path transform="matrix(.54366 .50059 .6212 -.4216 354.68 45.439)" d="m253.57 130.16c-0.50714 4.2962-5.2588 2.179-6.0578-0.71508-1.2437-4.5043 2.9716-8.3736 7.1722-8.725 6.162-0.51553 11.019 4.9828 11.123 10.885 0.13231 7.565-6.6344 13.384-13.974 13.266-3.565-0.05701-7.0363-1.4373-9.7186-3.7764" fill="#ffafb3" fill-rule="evenodd" stroke="#df4b6f" stroke-width="2.5173"/>
  <path transform="matrix(.5463 -.31735 -.26103 -.56894 474.48 266.99)" d="m253.57 130.16c-0.50714 4.2962-5.2588 2.179-6.0578-0.71508-1.2437-4.5043 2.9716-8.3736 7.1722-8.725 6.162-0.51553 11.019 4.9828 11.123 10.885 0.13231 7.565-6.6344 13.384-13.974 13.266-3.565-0.05701-7.0363-1.4373-9.7186-3.7764" fill="#ffb5b3" fill-rule="evenodd" stroke="#f77494" stroke-width="2.9488"/>
  <path transform="matrix(-.04783 .3121 -.39464 -.04379 638.61 40.172)" d="m253.57 130.16c-0.50714 4.2962-5.2588 2.179-6.0578-0.71508-1.2437-4.5043 2.9716-8.3736 7.1722-8.725 6.162-0.51553 11.019 4.9828 11.123 10.885 0.13231 7.565-6.6344 13.384-13.974 13.266-3.565-0.05701-7.0363-1.4373-9.7186-3.7764" fill="#ffaaae" fill-rule="evenodd" stroke="#fc6098" stroke-width="5.2274"/>
  <path transform="matrix(-.17687 .62876 .62728 .17823 535.32 -69.58)" d="m253.57 130.16c-0.50714 4.2962-5.2588 2.179-6.0578-0.71508-1.2437-4.5043 2.9716-8.3736 7.1722-8.725 6.162-0.51553 11.019 4.9828 11.123 10.885 0.13231 7.565-6.6344 13.384-13.974 13.266-3.565-0.05701-7.0363-1.4373-9.7186-3.7764" fill="#ffb6b9" fill-rule="evenodd" stroke="#f66183" stroke-width="2.8348"/>
  <path transform="matrix(.39912 -.38635 -.41604 -.37545 531.13 261.25)" d="m253.57 130.16c-0.50714 4.2962-5.2588 2.179-6.0578-0.71508-1.2437-4.5043 2.9716-8.3736 7.1722-8.725 6.162-0.51553 11.019 4.9828 11.123 10.885 0.13231 7.565-6.6344 13.384-13.974 13.266-3.565-0.05701-7.0363-1.4373-9.7186-3.7764" fill="#ffafb3" fill-rule="evenodd" stroke="#df4b6f" stroke-width="3.3198"/>
  <path transform="matrix(-.31899 -.33373 -.48005 .20733 716.85 168.87)" d="m253.57 130.16c-0.50714 4.2962-5.2588 2.179-6.0578-0.71508-1.2437-4.5043 2.9716-8.3736 7.1722-8.725 6.162-0.51553 11.019 4.9828 11.123 10.885 0.13231 7.565-6.6344 13.384-13.974 13.266-3.565-0.05701-7.0363-1.4373-9.7186-3.7764" fill="#ffb5b3" fill-rule="evenodd" stroke="#f77494" stroke-width="3.8888"/>
  <path transform="matrix(-.21551 .3966 .38356 .34439 576.95 -31.279)" d="m253.57 130.16c-0.50714 4.2962-5.2588 2.179-6.0578-0.71508-1.2437-4.5043 2.9716-8.3736 7.1722-8.725 6.162-0.51553 11.019 4.9828 11.123 10.885 0.13231 7.565-6.6344 13.384-13.974 13.266-3.565-0.05701-7.0363-1.4373-9.7186-3.7764" fill="#ffb5b3" fill-rule="evenodd" stroke="#f77494" stroke-width="3.8888"/>
  <path transform="matrix(.27748 .01033 -.00922 .25922 504.93 76.635)" d="m253.57 130.16c-0.50714 4.2962-5.2588 2.179-6.0578-0.71508-1.2437-4.5043 2.9716-8.3736 7.1722-8.725 6.162-0.51553 11.019 4.9828 11.123 10.885 0.13231 7.565-6.6344 13.384-13.974 13.266-3.565-0.05701-7.0363-1.4373-9.7186-3.7764" fill="#ffaaae" fill-rule="evenodd" stroke="#fc6098" stroke-width="6.8938"/>
  <g transform="matrix(1.7764 .06615 -.06199 1.7428 -143.16 -103.31)" fill="url(#d)" fill-rule="evenodd">
   <path transform="matrix(-.051498 .40918 .47726 .044135 357.56 1.3697)" d="m253.57 130.16c-0.50714 4.2962-5.2588 2.179-6.0578-0.71508-1.2437-4.5043 2.9716-8.3736 7.1722-8.725 6.162-0.51553 11.019 4.9828 11.123 10.885 0.13231 7.565-6.6344 13.384-13.974 13.266-3.565-0.05701-7.0363-1.4373-9.7186-3.7764"/>
   <path transform="matrix(-.051498 .40918 .47726 .044135 358.95 3.0736)" d="m253.57 130.16c-0.50714 4.2962-5.2588 2.179-6.0578-0.71508-1.2437-4.5043 2.9716-8.3736 7.1722-8.725 6.162-0.51553 11.019 4.9828 11.123 10.885 0.13231 7.565-6.6344 13.384-13.974 13.266-3.565-0.05701-7.0363-1.4373-9.7186-3.7764" stroke="#df4b6f" stroke-width="2.3641"/>
   <path transform="matrix(.23302 -.23263 -.25963 -.20871 387.1 197.29)" d="m253.57 130.16c-0.50714 4.2962-5.2588 2.179-6.0578-0.71508-1.2437-4.5043 2.9716-8.3736 7.1722-8.725 6.162-0.51553 11.019 4.9828 11.123 10.885 0.13231 7.565-6.6344 13.384-13.974 13.266-3.565-0.05701-7.0363-1.4373-9.7186-3.7764" stroke="#df4b6f" stroke-width="3.1823"/>
   <path transform="matrix(-.26466 -.17862 -.18755 .25198 496.69 122.94)" d="m253.57 130.16c-0.50714 4.2962-5.2588 2.179-6.0578-0.71508-1.2437-4.5043 2.9716-8.3736 7.1722-8.725 6.162-0.51553 11.019 4.9828 11.123 10.885 0.13231 7.565-6.6344 13.384-13.974 13.266-3.565-0.05701-7.0363-1.4373-9.7186-3.7764" stroke="#df4b6f" stroke-width="3.3198"/>
   <path transform="matrix(-.44184 -.12154 -.149 .3454 538.7 94.067)" d="m253.57 130.16c-0.50714 4.2962-5.2588 2.179-6.0578-0.71508-1.2437-4.5043 2.9716-8.3736 7.1722-8.725 6.162-0.51553 11.019 4.9828 11.123 10.885 0.13231 7.565-6.6344 13.384-13.974 13.266-3.565-0.05701-7.0363-1.4373-9.7186-3.7764" stroke="#f66183" stroke-width="2.5431"/>
   <path transform="matrix(.31565 .27526 .3408 -.25485 283.1 75.089)" d="m253.57 130.16c-0.50714 4.2962-5.2588 2.179-6.0578-0.71508-1.2437-4.5043 2.9716-8.3736 7.1722-8.725 6.162-0.51553 11.019 4.9828 11.123 10.885 0.13231 7.565-6.6344 13.384-13.974 13.266-3.565-0.05701-7.0363-1.4373-9.7186-3.7764" stroke="#df4b6f" stroke-width="2.5173"/>
   <path transform="matrix(.30077 -.19351 -.15812 -.32046 354.88 199.49)" d="m253.57 130.16c-0.50714 4.2962-5.2588 2.179-6.0578-0.71508-1.2437-4.5043 2.9716-8.3736 7.1722-8.725 6.162-0.51553 11.019 4.9828 11.123 10.885 0.13231 7.565-6.6344 13.384-13.974 13.266-3.565-0.05701-7.0363-1.4373-9.7186-3.7764" stroke="#f77494" stroke-width="2.9488"/>
   <path transform="matrix(-.020648 .17987 -.22274 -.016674 442.62 66.012)" d="m253.57 130.16c-0.50714 4.2962-5.2588 2.179-6.0578-0.71508-1.2437-4.5043 2.9716-8.3736 7.1722-8.725 6.162-0.51553 11.019 4.9828 11.123 10.885 0.13231 7.565-6.6344 13.384-13.974 13.266-3.565-0.05701-7.0363-1.4373-9.7186-3.7764" stroke="#fc6098" stroke-width="5.2274"/>
   <path transform="matrix(-.086861 .36408 .35621 .088747 382.36 5.3243)" d="m253.57 130.16c-0.50714 4.2962-5.2588 2.179-6.0578-0.71508-1.2437-4.5043 2.9716-8.3736 7.1722-8.725 6.162-0.51553 11.019 4.9828 11.123 10.885 0.13231 7.565-6.6344 13.384-13.974 13.266-3.565-0.05701-7.0363-1.4373-9.7186-3.7764" stroke="#f66183" stroke-width="2.8348"/>
   <path transform="matrix(.21666 -.22991 -.2414 -.20627 386.61 194.99)" d="m253.57 130.16c-0.50714 4.2962-5.2588 2.179-6.0578-0.71508-1.2437-4.5043 2.9716-8.3736 7.1722-8.725 6.162-0.51553 11.019 4.9828 11.123 10.885 0.13231 7.565-6.6344 13.384-13.974 13.266-3.565-0.05701-7.0363-1.4373-9.7186-3.7764" stroke="#df4b6f" stroke-width="3.3198"/>
   <path transform="matrix(-.186 -.18443 -.26573 .12905 489.18 138.09)" d="m253.57 130.16c-0.50714 4.2962-5.2588 2.179-6.0578-0.71508-1.2437-4.5043 2.9716-8.3736 7.1722-8.725 6.162-0.51553 11.019 4.9828 11.123 10.885 0.13231 7.565-6.6344 13.384-13.974 13.266-3.565-0.05701-7.0363-1.4373-9.7186-3.7764" stroke="#f77494" stroke-width="3.8888"/>
   <path transform="matrix(-.11323 .23186 .22252 .18917 406.52 26.384)" d="m253.57 130.16c-0.50714 4.2962-5.2588 2.179-6.0578-0.71508-1.2437-4.5043 2.9716-8.3736 7.1722-8.725 6.162-0.51553 11.019 4.9828 11.123 10.885 0.13231 7.565-6.6344 13.384-13.974 13.266-3.565-0.05701-7.0363-1.4373-9.7186-3.7764" stroke="#f77494" stroke-width="3.8888"/>
   <path transform="matrix(.1562 0 0 .14874 368.19 89.76)" d="m253.57 130.16c-0.50714 4.2962-5.2588 2.179-6.0578-0.71508-1.2437-4.5043 2.9716-8.3736 7.1722-8.725 6.162-0.51553 11.019 4.9828 11.123 10.885 0.13231 7.565-6.6344 13.384-13.974 13.266-3.565-0.05701-7.0363-1.4373-9.7186-3.7764" stroke="#fc6098" stroke-width="6.8938"/>
  </g>
  <g transform="matrix(.55955 0 0 .56391 335.2 100.62)">
   <path d="m392.53 51.96c1.2218-3.2403 1.3268-6.6402 10.065-8.8068 17.395-2.3393 22.552 4.3709 31.872 9.2262-11.156 6.6858-23.851 12.363-32.711 11.323-7.7864-1.8951-9.1899-6.5258-9.2262-11.742z" fill="url(#c)" fill-rule="evenodd"/>
   <path d="m389.6 53.637 34.388-1.2581" fill="none" stroke="#575700" stroke-width="3.2936"/>
  </g>
  <g transform="matrix(.55955 0 0 .56391 335.2 100.62)">
   <path d="m392.53 51.96c1.2218-3.2403 1.3268-6.6402 10.065-8.8068 17.395-2.3393 22.552 4.3709 31.872 9.2262-11.156 6.6858-23.851 12.363-32.711 11.323-7.7864-1.8951-9.1899-6.5258-9.2262-11.742z" fill="url(#c)" fill-rule="evenodd"/>
   <path d="m389.6 53.637 34.388-1.2581" fill="none" stroke="#575700" stroke-width="3.2936"/>
  </g>
  <g transform="matrix(-.15969 .53627 -.54046 -.16094 642.3 -72.937)">
   <path d="m392.53 51.96c1.2218-3.2403 1.3268-6.6402 10.065-8.8068 17.395-2.3393 22.552 4.3709 31.872 9.2262-11.156 6.6858-23.851 12.363-32.711 11.323-7.7864-1.8951-9.1899-6.5258-9.2262-11.742z" fill="url(#c)" fill-rule="evenodd"/>
   <path d="m389.6 53.637 34.388-1.2581" fill="none" stroke="#575700" stroke-width="3.2936"/>
  </g>
  <g transform="matrix(.42241 .36697 -.36983 .4257 437.19 -39.238)">
   <path d="m392.53 51.96c1.2218-3.2403 1.3268-6.6402 10.065-8.8068 17.395-2.3393 22.552 4.3709 31.872 9.2262-11.156 6.6858-23.851 12.363-32.711 11.323-7.7864-1.8951-9.1899-6.5258-9.2262-11.742z" fill="url(#c)" fill-rule="evenodd"/>
   <path d="m389.6 53.637 34.388-1.2581" fill="none" stroke="#575700" stroke-width="3.2936"/>
  </g>
  <g transform="matrix(.16523 .53459 -.53876 .16652 600.8 -85.068)">
   <path d="m392.53 51.96c1.2218-3.2403 1.3268-6.6402 10.065-8.8068 17.395-2.3393 22.552 4.3709 31.872 9.2262-11.156 6.6858-23.851 12.363-32.711 11.323-7.7864-1.8951-9.1899-6.5258-9.2262-11.742z" fill="url(#c)" fill-rule="evenodd"/>
   <path d="m389.6 53.637 34.388-1.2581" fill="none" stroke="#575700" stroke-width="3.2936"/>
  </g>
  <path transform="matrix(.475 0 0 .4813 394.91 47.887)" d="m330.88 147.16a11.742 10.484 0 1 1 -23.485 0 11.742 10.484 0 1 1 23.485 0z" fill="#c83737" fill-rule="evenodd"/>
  <path transform="matrix(.28839 0 0 .19252 454.67 91.796)" d="m330.88 147.16a11.742 10.484 0 1 1 -23.485 0 11.742 10.484 0 1 1 23.485 0z" fill="#de8787" fill-rule="evenodd" filter="url(#a)"/>
  <path transform="matrix(.475 0 0 .4813 402.88 46.878)" d="m330.88 147.16a11.742 10.484 0 1 1 -23.485 0 11.742 10.484 0 1 1 23.485 0z" fill="#c83737" fill-rule="evenodd"/>
  <path transform="matrix(.28839 0 0 .19252 462.63 90.787)" d="m330.88 147.16a11.742 10.484 0 1 1 -23.485 0 11.742 10.484 0 1 1 23.485 0z" fill="#de8787" fill-rule="evenodd" filter="url(#a)"/>
  <path transform="matrix(.475 0 0 .4813 393.32 54.346)" d="m330.88 147.16a11.742 10.484 0 1 1 -23.485 0 11.742 10.484 0 1 1 23.485 0z" fill="#c83737" fill-rule="evenodd"/>
  <path transform="matrix(.28839 0 0 .19252 453.07 98.255)" d="m330.88 147.16a11.742 10.484 0 1 1 -23.485 0 11.742 10.484 0 1 1 23.485 0z" fill="#de8787" fill-rule="evenodd" filter="url(#a)"/>
  <path transform="matrix(.475 0 0 .4813 400.09 56.768)" d="m330.88 147.16a11.742 10.484 0 1 1 -23.485 0 11.742 10.484 0 1 1 23.485 0z" fill="#c83737" fill-rule="evenodd"/>
  <path transform="matrix(.28839 0 0 .19252 459.85 100.68)" d="m330.88 147.16a11.742 10.484 0 1 1 -23.485 0 11.742 10.484 0 1 1 23.485 0z" fill="#de8787" fill-rule="evenodd" filter="url(#a)"/>
  <path transform="matrix(.475 0 0 .4813 406.07 51.722)" d="m330.88 147.16a11.742 10.484 0 1 1 -23.485 0 11.742 10.484 0 1 1 23.485 0z" fill="#c83737" fill-rule="evenodd"/>
  <path transform="matrix(.28839 0 0 .19252 465.82 95.631)" d="m330.88 147.16a11.742 10.484 0 1 1 -23.485 0 11.742 10.484 0 1 1 23.485 0z" fill="#de8787" fill-rule="evenodd" filter="url(#a)"/>
  <path transform="matrix(.475 0 0 .4813 402.88 89.669)" d="m318.72 67.267a7.1293 6.0809 0 1 1 -14.259 0 7.1293 6.0809 0 1 1 14.259 0z" fill="#cf0" fill-rule="evenodd" stroke="#00db00" stroke-width="3.8694"/>
  <path transform="matrix(.31716 .10285 -.13934 .23411 461.73 73.44)" d="m318.72 67.267a7.1293 6.0809 0 1 1 -14.259 0 7.1293 6.0809 0 1 1 14.259 0z" fill="#ffe680" fill-rule="evenodd" filter="url(#i)" stroke="#00db00" stroke-width="6.2162"/>
  <path transform="matrix(.475 0 0 .4813 406.07 51.722)" d="m330.88 147.16a11.742 10.484 0 1 1 -23.485 0 11.742 10.484 0 1 1 23.485 0z" fill="#c83737" fill-rule="evenodd"/>
  <path transform="matrix(.28839 0 0 .19252 465.82 95.631)" d="m330.88 147.16a11.742 10.484 0 1 1 -23.485 0 11.742 10.484 0 1 1 23.485 0z" fill="#de8787" fill-rule="evenodd" filter="url(#a)"/>
  <path transform="matrix(.475 0 0 .4813 400.09 56.768)" d="m330.88 147.16a11.742 10.484 0 1 1 -23.485 0 11.742 10.484 0 1 1 23.485 0z" fill="#c83737" fill-rule="evenodd"/>
  <path transform="matrix(.28839 0 0 .19252 459.85 100.68)" d="m330.88 147.16a11.742 10.484 0 1 1 -23.485 0 11.742 10.484 0 1 1 23.485 0z" fill="#de8787" fill-rule="evenodd" filter="url(#a)"/>
  <path transform="matrix(-.08597 .49565 .62176 .07577 514.42 -37.95)" d="m253.57 130.16c-0.50714 4.2962-5.2588 2.179-6.0578-0.71508-1.2437-4.5043 2.9716-8.3736 7.1722-8.725 6.162-0.51553 11.019 4.9828 11.123 10.885 0.13231 7.565-6.6344 13.384-13.974 13.266-3.565-0.05701-7.0363-1.4373-9.7186-3.7764" fill="url(#e)" fill-rule="evenodd"/>
  <path transform="matrix(-.08597 .49565 .62176 .07577 516.15 -35.812)" d="m253.57 130.16c-0.50714 4.2962-5.2588 2.179-6.0578-0.71508-1.2437-4.5043 2.9716-8.3736 7.1722-8.725 6.162-0.51553 11.019 4.9828 11.123 10.885 0.13231 7.565-6.6344 13.384-13.974 13.266-3.565-0.05701-7.0363-1.4373-9.7186-3.7764" fill="#ffafb3" fill-rule="evenodd" stroke="#df4b6f" stroke-width="3.298"/>
  <path transform="matrix(.31516 -.27238 -.32981 -.26603 544.08 201.88)" d="m253.57 130.16c-0.50714 4.2962-5.2588 2.179-6.0578-0.71508-1.2437-4.5043 2.9716-8.3736 7.1722-8.725 6.162-0.51553 11.019 4.9828 11.123 10.885 0.13231 7.565-6.6344 13.384-13.974 13.266-3.565-0.05701-7.0363-1.4373-9.7186-3.7764" fill="#ffafb3" fill-rule="evenodd" stroke="#df4b6f" stroke-width="4.4394"/>
  <path transform="matrix(-.33776 -.22963 -.25661 .29803 690.7 116.44)" d="m253.57 130.16c-0.50714 4.2962-5.2588 2.179-6.0578-0.71508-1.2437-4.5043 2.9716-8.3736 7.1722-8.725 6.162-0.51553 11.019 4.9828 11.123 10.885 0.13231 7.565-6.6344 13.384-13.974 13.266-3.565-0.05701-7.0363-1.4373-9.7186-3.7764" fill="#ffafb3" fill-rule="evenodd" stroke="#df4b6f" stroke-width="4.6312"/>
  <path transform="matrix(-.57193 -.16835 -.21049 .41352 746.92 83.244)" d="m253.57 130.16c-0.50714 4.2962-5.2588 2.179-6.0578-0.71508-1.2437-4.5043 2.9716-8.3736 7.1722-8.725 6.162-0.51553 11.019 4.9828 11.123 10.885 0.13231 7.565-6.6344 13.384-13.974 13.266-3.565-0.05701-7.0363-1.4373-9.7186-3.7764" fill="#ffb6b9" fill-rule="evenodd" stroke="#f66183" stroke-width="3.5478"/>
  <path transform="matrix(.39999 .34961 .45703 -.29444 413.73 48.337)" d="m253.57 130.16c-0.50714 4.2962-5.2588 2.179-6.0578-0.71508-1.2437-4.5043 2.9716-8.3736 7.1722-8.725 6.162-0.51553 11.019 4.9828 11.123 10.885 0.13231 7.565-6.6344 13.384-13.974 13.266-3.565-0.05701-7.0363-1.4373-9.7186-3.7764" fill="#ffafb3" fill-rule="evenodd" stroke="#df4b6f" stroke-width="3.5117"/>
  <path transform="matrix(.40193 -.22163 -.19205 -.39735 501.88 203.06)" d="m253.57 130.16c-0.50714 4.2962-5.2588 2.179-6.0578-0.71508-1.2437-4.5043 2.9716-8.3736 7.1722-8.725 6.162-0.51553 11.019 4.9828 11.123 10.885 0.13231 7.565-6.6344 13.384-13.974 13.266-3.565-0.05701-7.0363-1.4373-9.7186-3.7764" fill="#ffb5b3" fill-rule="evenodd" stroke="#f77494" stroke-width="4.1137"/>
  <path transform="matrix(-.03519 .21797 -.29035 -.03058 622.63 44.659)" d="m253.57 130.16c-0.50714 4.2962-5.2588 2.179-6.0578-0.71508-1.2437-4.5043 2.9716-8.3736 7.1722-8.725 6.162-0.51553 11.019 4.9828 11.123 10.885 0.13231 7.565-6.6344 13.384-13.974 13.266-3.565-0.05701-7.0363-1.4373-9.7186-3.7764" fill="#ffaaae" fill-rule="evenodd" stroke="#fc6098" stroke-width="7.2924"/>
  <path transform="matrix(-.13013 .43912 .46151 .12447 546.64 -31.991)" d="m253.57 130.16c-0.50714 4.2962-5.2588 2.179-6.0578-0.71508-1.2437-4.5043 2.9716-8.3736 7.1722-8.725 6.162-0.51553 11.019 4.9828 11.123 10.885 0.13231 7.565-6.6344 13.384-13.974 13.266-3.565-0.05701-7.0363-1.4373-9.7186-3.7764" fill="#ffb6b9" fill-rule="evenodd" stroke="#f66183" stroke-width="3.9547"/>
  <path transform="matrix(.29365 -.26982 -.30609 -.26221 543.55 199.06)" d="m253.57 130.16c-0.50714 4.2962-5.2588 2.179-6.0578-0.71508-1.2437-4.5043 2.9716-8.3736 7.1722-8.725 6.162-0.51553 11.019 4.9828 11.123 10.885 0.13231 7.565-6.6344 13.384-13.974 13.266-3.565-0.05701-7.0363-1.4373-9.7186-3.7764" fill="#ffafb3" fill-rule="evenodd" stroke="#df4b6f" stroke-width="4.6312"/>
  <path transform="matrix(-.23469 -.23307 -.35318 .1448 680.2 134.54)" d="m253.57 130.16c-0.50714 4.2962-5.2588 2.179-6.0578-0.71508-1.2437-4.5043 2.9716-8.3736 7.1722-8.725 6.162-0.51553 11.019 4.9828 11.123 10.885 0.13231 7.565-6.6344 13.384-13.974 13.266-3.565-0.05701-7.0363-1.4373-9.7186-3.7764" fill="#ffb5b3" fill-rule="evenodd" stroke="#f77494" stroke-width="5.4251"/>
  <path transform="matrix(-.15856 .27698 .2822 .24052 577.27 -5.242)" d="m253.57 130.16c-0.50714 4.2962-5.2588 2.179-6.0578-0.71508-1.2437-4.5043 2.9716-8.3736 7.1722-8.725 6.162-0.51553 11.019 4.9828 11.123 10.885 0.13231 7.565-6.6344 13.384-13.974 13.266-3.565-0.05701-7.0363-1.4373-9.7186-3.7764" fill="#ffb5b3" fill-rule="evenodd" stroke="#f77494" stroke-width="5.4251"/>
  <path transform="matrix(.20415 .00722 -.00678 .18104 524.27 70.125)" d="m253.57 130.16c-0.50714 4.2962-5.2588 2.179-6.0578-0.71508-1.2437-4.5043 2.9716-8.3736 7.1722-8.725 6.162-0.51553 11.019 4.9828 11.123 10.885 0.13231 7.565-6.6344 13.384-13.974 13.266-3.565-0.05701-7.0363-1.4373-9.7186-3.7764" fill="#ffaaae" fill-rule="evenodd" stroke="#fc6098" stroke-width="9.6172"/>
  <g transform="matrix(1.307 .0462 -.04561 1.2171 47.459 -55.549)" fill="url(#d)" fill-rule="evenodd">
   <path transform="matrix(-.051498 .40918 .47726 .044135 357.56 1.3697)" d="m253.57 130.16c-0.50714 4.2962-5.2588 2.179-6.0578-0.71508-1.2437-4.5043 2.9716-8.3736 7.1722-8.725 6.162-0.51553 11.019 4.9828 11.123 10.885 0.13231 7.565-6.6344 13.384-13.974 13.266-3.565-0.05701-7.0363-1.4373-9.7186-3.7764"/>
   <path transform="matrix(-.051498 .40918 .47726 .044135 358.95 3.0736)" d="m253.57 130.16c-0.50714 4.2962-5.2588 2.179-6.0578-0.71508-1.2437-4.5043 2.9716-8.3736 7.1722-8.725 6.162-0.51553 11.019 4.9828 11.123 10.885 0.13231 7.565-6.6344 13.384-13.974 13.266-3.565-0.05701-7.0363-1.4373-9.7186-3.7764" stroke="#df4b6f" stroke-width="3.298"/>
   <path transform="matrix(.23302 -.23263 -.25963 -.20871 387.1 197.29)" d="m253.57 130.16c-0.50714 4.2962-5.2588 2.179-6.0578-0.71508-1.2437-4.5043 2.9716-8.3736 7.1722-8.725 6.162-0.51553 11.019 4.9828 11.123 10.885 0.13231 7.565-6.6344 13.384-13.974 13.266-3.565-0.05701-7.0363-1.4373-9.7186-3.7764" stroke="#df4b6f" stroke-width="4.4394"/>
   <path transform="matrix(-.26466 -.17862 -.18755 .25198 496.69 122.94)" d="m253.57 130.16c-0.50714 4.2962-5.2588 2.179-6.0578-0.71508-1.2437-4.5043 2.9716-8.3736 7.1722-8.725 6.162-0.51553 11.019 4.9828 11.123 10.885 0.13231 7.565-6.6344 13.384-13.974 13.266-3.565-0.05701-7.0363-1.4373-9.7186-3.7764" stroke="#df4b6f" stroke-width="4.6312"/>
   <path transform="matrix(-.44184 -.12154 -.149 .3454 538.7 94.067)" d="m253.57 130.16c-0.50714 4.2962-5.2588 2.179-6.0578-0.71508-1.2437-4.5043 2.9716-8.3736 7.1722-8.725 6.162-0.51553 11.019 4.9828 11.123 10.885 0.13231 7.565-6.6344 13.384-13.974 13.266-3.565-0.05701-7.0363-1.4373-9.7186-3.7764" stroke="#f66183" stroke-width="3.5478"/>
   <path transform="matrix(.31565 .27526 .3408 -.25485 283.1 75.089)" d="m253.57 130.16c-0.50714 4.2962-5.2588 2.179-6.0578-0.71508-1.2437-4.5043 2.9716-8.3736 7.1722-8.725 6.162-0.51553 11.019 4.9828 11.123 10.885 0.13231 7.565-6.6344 13.384-13.974 13.266-3.565-0.05701-7.0363-1.4373-9.7186-3.7764" stroke="#df4b6f" stroke-width="3.5117"/>
   <path transform="matrix(.30077 -.19351 -.15812 -.32046 354.88 199.49)" d="m253.57 130.16c-0.50714 4.2962-5.2588 2.179-6.0578-0.71508-1.2437-4.5043 2.9716-8.3736 7.1722-8.725 6.162-0.51553 11.019 4.9828 11.123 10.885 0.13231 7.565-6.6344 13.384-13.974 13.266-3.565-0.05701-7.0363-1.4373-9.7186-3.7764" stroke="#f77494" stroke-width="4.1137"/>
   <path transform="matrix(-.020648 .17987 -.22274 -.016674 442.62 66.012)" d="m253.57 130.16c-0.50714 4.2962-5.2588 2.179-6.0578-0.71508-1.2437-4.5043 2.9716-8.3736 7.1722-8.725 6.162-0.51553 11.019 4.9828 11.123 10.885 0.13231 7.565-6.6344 13.384-13.974 13.266-3.565-0.05701-7.0363-1.4373-9.7186-3.7764" stroke="#fc6098" stroke-width="7.2924"/>
   <path transform="matrix(-.086861 .36408 .35621 .088747 382.36 5.3243)" d="m253.57 130.16c-0.50714 4.2962-5.2588 2.179-6.0578-0.71508-1.2437-4.5043 2.9716-8.3736 7.1722-8.725 6.162-0.51553 11.019 4.9828 11.123 10.885 0.13231 7.565-6.6344 13.384-13.974 13.266-3.565-0.05701-7.0363-1.4373-9.7186-3.7764" stroke="#f66183" stroke-width="3.9547"/>
   <path transform="matrix(.21666 -.22991 -.2414 -.20627 386.61 194.99)" d="m253.57 130.16c-0.50714 4.2962-5.2588 2.179-6.0578-0.71508-1.2437-4.5043 2.9716-8.3736 7.1722-8.725 6.162-0.51553 11.019 4.9828 11.123 10.885 0.13231 7.565-6.6344 13.384-13.974 13.266-3.565-0.05701-7.0363-1.4373-9.7186-3.7764" stroke="#df4b6f" stroke-width="4.6312"/>
   <path transform="matrix(-.186 -.18443 -.26573 .12905 489.18 138.09)" d="m253.57 130.16c-0.50714 4.2962-5.2588 2.179-6.0578-0.71508-1.2437-4.5043 2.9716-8.3736 7.1722-8.725 6.162-0.51553 11.019 4.9828 11.123 10.885 0.13231 7.565-6.6344 13.384-13.974 13.266-3.565-0.05701-7.0363-1.4373-9.7186-3.7764" stroke="#f77494" stroke-width="5.4251"/>
   <path transform="matrix(-.11323 .23186 .22252 .18917 406.52 26.384)" d="m253.57 130.16c-0.50714 4.2962-5.2588 2.179-6.0578-0.71508-1.2437-4.5043 2.9716-8.3736 7.1722-8.725 6.162-0.51553 11.019 4.9828 11.123 10.885 0.13231 7.565-6.6344 13.384-13.974 13.266-3.565-0.05701-7.0363-1.4373-9.7186-3.7764" stroke="#f77494" stroke-width="5.4251"/>
   <path transform="matrix(.1562 0 0 .14874 368.19 89.76)" d="m253.57 130.16c-0.50714 4.2962-5.2588 2.179-6.0578-0.71508-1.2437-4.5043 2.9716-8.3736 7.1722-8.725 6.162-0.51553 11.019 4.9828 11.123 10.885 0.13231 7.565-6.6344 13.384-13.974 13.266-3.565-0.05701-7.0363-1.4373-9.7186-3.7764" stroke="#fc6098" stroke-width="9.6172"/>
  </g>
  <g transform="matrix(-.15969 .53627 -.54046 -.16094 631.4 -75.873)">
   <path d="m392.53 51.96c1.2218-3.2403 1.3268-6.6402 10.065-8.8068 17.395-2.3393 22.552 4.3709 31.872 9.2262-11.156 6.6858-23.851 12.363-32.711 11.323-7.7864-1.8951-9.1899-6.5258-9.2262-11.742z" fill="url(#c)" fill-rule="evenodd"/>
   <path d="m389.6 53.637 34.388-1.2581" fill="none" stroke="#575700" stroke-width="3.2936"/>
  </g>
  <g transform="matrix(-.15969 .53627 -.54046 -.16094 729.53 -57.001)">
   <path d="m392.53 51.96c1.2218-3.2403 1.3268-6.6402 10.065-8.8068 17.395-2.3393 22.552 4.3709 31.872 9.2262-11.156 6.6858-23.851 12.363-32.711 11.323-7.7864-1.8951-9.1899-6.5258-9.2262-11.742z" fill="url(#c)" fill-rule="evenodd"/>
   <path d="m389.6 53.637 34.388-1.2581" fill="none" stroke="#575700" stroke-width="3.2936"/>
  </g>
  <g transform="matrix(-.15969 .53627 -.54046 -.16094 704.79 -62.872)">
   <path d="m392.53 51.96c1.2218-3.2403 1.3268-6.6402 10.065-8.8068 17.395-2.3393 22.552 4.3709 31.872 9.2262-11.156 6.6858-23.851 12.363-32.711 11.323-7.7864-1.8951-9.1899-6.5258-9.2262-11.742z" fill="url(#c)" fill-rule="evenodd"/>
   <path d="m389.6 53.637 34.388-1.2581" fill="none" stroke="#575700" stroke-width="3.2936"/>
  </g>
  <g transform="matrix(.84919 0 0 .82141 394.28 16.347)" fill-rule="evenodd">
   <path d="m277.44 132.77c-1.9443 4.2712-3.719 6.5597 2.4494 13.41 4.1597-2.7598 7.8469-3.172 7.5091-8.8296l-9.9585-4.5804z" fill="#3b79b3" stroke="#3b79ee" stroke-width="2.2152"/>
   <path d="m272.44 139.63c-6.9129 2.3942-7.6223 8.246-9.1084 13.665 7.2665-1.8046 15.384-2.8972 17.227-9.2383l-8.119-4.4267z" fill="url(#o)" stroke="#00486a" stroke-width="2.2152"/>
   <path d="m285.95 144.95c4.5669 3.9136 10.15 2.2398 15.606 1.2657-4.1509-4.3774-7.9455-9.6093-14.366-8.5417l-1.2403 7.276z" fill="url(#n)" stroke="#00486a" stroke-width="2.2152"/>
   <path d="m277.19 134.83c-3.5424-4.668-9.3916-4.1096-14.952-4.2056 3.0268 5.0385 5.5046 10.838 12.029 11.027l2.9227-6.8218z" fill="url(#m)" stroke="#00486a" stroke-width="2.2152"/>
   <path d="m278.67 147.41c-0.98654 6.432 4.6948 9.3734 9.5412 12.752 1.7715-6.4712 4.7029-13.325-0.91621-17.36l-8.625 4.6086z" fill="url(#l)" stroke="#00486a" stroke-width="2.2152"/>
   <path d="m276.6 132.56c-1.9443 3.8037-3.719 5.8417 2.4494 11.942 4.1597-2.4577 7.8469-2.8248 7.5091-7.8632l-9.9585-4.079z" fill="#3b79b3" stroke="#3b79ee" stroke-width="2.2152"/>
   <path d="m276.14 133.14c-2.3222 4.0734-1.618 5.3096 2.3476 13.806 3.9047-2.0181 9.1522-2.9689 9.8158-8.9804 1.5767-9.0506-7.0079-11.228-12.163-4.8258z" fill="url(#k)" stroke="#1c506e" stroke-opacity=".96604" stroke-width="2.2152"/>
   <path transform="matrix(-.74626 .10197 -.078615 -.57535 510.48 170.36)" d="m291.88 113.61c2.6843 0.00963 1.7142 3.0882-0.01358 3.7849-2.6891 1.0844-5.3717-1.2413-5.8846-3.8061-0.75241-3.7623 2.2946-7.1446 5.9256-7.6245 4.6543-0.61511 8.7186 3.146 9.1638 7.6786 0.2163 2.2018-0.38981 4.4391-1.6426 6.2576" fill="#4441ff" stroke="#31486a" stroke-width="3.3495"/>
   <path transform="matrix(.75319 0 0 .5807 61.317 68.306)" d="m291.88 113.61c2.6843 0.00963 1.7142 3.0882-0.01358 3.7849-2.6891 1.0844-5.3717-1.2413-5.8846-3.8061-0.75241-3.7623 2.2946-7.1446 5.9256-7.6245 4.6543-0.61511 8.7186 3.146 9.1638 7.6786 0.2163 2.2018-0.38981 4.4391-1.6426 6.2576" fill="#4441ff" stroke="#314f6a" stroke-width="3.3495"/>
   <path transform="matrix(.75319 0 0 .5807 61.107 68.516)" d="m291.88 113.61c2.6843 0.00963 1.7142 3.0882-0.01358 3.7849-2.6891 1.0844-5.3717-1.2413-5.8846-3.8061-0.75241-3.7623 2.2946-7.1446 5.9256-7.6245 4.6543-0.61511 8.7186 3.146 9.1638 7.6786 0.2163 2.2018-0.38981 4.4391-1.6426 6.2576" fill="#4441ff" stroke="#312a6a" stroke-width="3.3495"/>
  </g>
  <path transform="matrix(.26195 .39624 -.40149 .26543 626.45 -37.427)" d="m330.88 147.16a11.742 10.484 0 1 1 -23.485 0 11.742 10.484 0 1 1 23.485 0z" fill="#c83737" fill-rule="evenodd"/>
  <path transform="matrix(.15904 .24057 -.1606 .10617 622.77 36.634)" d="m330.88 147.16a11.742 10.484 0 1 1 -23.485 0 11.742 10.484 0 1 1 23.485 0z" fill="#de8787" fill-rule="evenodd" filter="url(#a)"/>
  <path transform="matrix(.26195 .39624 -.40149 .26543 631.68 -31.336)" d="m330.88 147.16a11.742 10.484 0 1 1 -23.485 0 11.742 10.484 0 1 1 23.485 0z" fill="#c83737" fill-rule="evenodd"/>
  <path transform="matrix(.15904 .24057 -.1606 .10617 628.01 42.724)" d="m330.88 147.16a11.742 10.484 0 1 1 -23.485 0 11.742 10.484 0 1 1 23.485 0z" fill="#de8787" fill-rule="evenodd" filter="url(#a)"/>
  <path transform="matrix(.26195 .39624 -.40149 .26543 620.18 -35.194)" d="m330.88 147.16a11.742 10.484 0 1 1 -23.485 0 11.742 10.484 0 1 1 23.485 0z" fill="#c83737" fill-rule="evenodd"/>
  <path transform="matrix(.15904 .24057 -.1606 .10617 616.5 38.866)" d="m330.88 147.16a11.742 10.484 0 1 1 -23.485 0 11.742 10.484 0 1 1 23.485 0z" fill="#de8787" fill-rule="evenodd" filter="url(#a)"/>
  <path transform="matrix(.26195 .39624 -.40149 .26543 621.89 -28.208)" d="m330.88 147.16a11.742 10.484 0 1 1 -23.485 0 11.742 10.484 0 1 1 23.485 0z" fill="#c83737" fill-rule="evenodd"/>
  <path transform="matrix(.15904 .24057 -.1606 .10617 618.22 45.852)" d="m330.88 147.16a11.742 10.484 0 1 1 -23.485 0 11.742 10.484 0 1 1 23.485 0z" fill="#de8787" fill-rule="evenodd" filter="url(#a)"/>
  <path transform="matrix(.26195 .39624 -.40149 .26543 629.4 -26.006)" d="m330.88 147.16a11.742 10.484 0 1 1 -23.485 0 11.742 10.484 0 1 1 23.485 0z" fill="#c83737" fill-rule="evenodd"/>
  <path transform="matrix(.15904 .24057 -.1606 .10617 625.72 48.054)" d="m330.88 147.16a11.742 10.484 0 1 1 -23.485 0 11.742 10.484 0 1 1 23.485 0z" fill="#de8787" fill-rule="evenodd" filter="url(#a)"/>
  <path transform="matrix(.26195 .39624 -.40149 .26543 595.99 -7.7381)" d="m318.72 67.267a7.1293 6.0809 0 1 1 -14.259 0 7.1293 6.0809 0 1 1 14.259 0z" fill="#cf0" fill-rule="evenodd" stroke="#00db00" stroke-width="3.8694"/>
  <path transform="matrix(.08911 .3213 -.27214 .01287 641.98 32.407)" d="m318.72 67.267a7.1293 6.0809 0 1 1 -14.259 0 7.1293 6.0809 0 1 1 14.259 0z" fill="#ffe680" fill-rule="evenodd" filter="url(#i)" stroke="#00db00" stroke-width="6.2162"/>
  <path transform="matrix(.26195 .39624 -.40149 .26543 629.4 -26.006)" d="m330.88 147.16a11.742 10.484 0 1 1 -23.485 0 11.742 10.484 0 1 1 23.485 0z" fill="#c83737" fill-rule="evenodd"/>
  <path transform="matrix(.15904 .24057 -.1606 .10617 625.72 48.054)" d="m330.88 147.16a11.742 10.484 0 1 1 -23.485 0 11.742 10.484 0 1 1 23.485 0z" fill="#de8787" fill-rule="evenodd" filter="url(#a)"/>
  <path transform="matrix(.26195 .39624 -.40149 .26543 621.89 -28.208)" d="m330.88 147.16a11.742 10.484 0 1 1 -23.485 0 11.742 10.484 0 1 1 23.485 0z" fill="#c83737" fill-rule="evenodd"/>
  <path transform="matrix(.15904 .24057 -.1606 .10617 618.22 45.852)" d="m330.88 147.16a11.742 10.484 0 1 1 -23.485 0 11.742 10.484 0 1 1 23.485 0z" fill="#de8787" fill-rule="evenodd" filter="url(#a)"/>
  <g transform="matrix(-.38061 -.41015 .41335 -.38358 680.81 293.15)">
   <path d="m392.53 51.96c1.2218-3.2403 1.3268-6.6402 10.065-8.8068 17.395-2.3393 22.552 4.3709 31.872 9.2262-11.156 6.6858-23.851 12.363-32.711 11.323-7.7864-1.8951-9.1899-6.5258-9.2262-11.742z" fill="url(#c)" fill-rule="evenodd"/>
   <path d="m389.6 53.637 34.388-1.2581" fill="none" stroke="#575700" stroke-width="3.2936"/>
  </g>
  <g transform="matrix(.35119 -.9363 .9363 .35119 268.89 749.72)">
   <path d="m736.15 91.931c-5.8516 9.1435-17.169 8.0884-27.09 9.6376 6.0688-7.6328 10.174-16.685 23.372-19.165l9.9812-2.7323-6.2628 12.259z" fill="#250" fill-rule="evenodd"/>
   <path d="m737.52 89.678c-5.1233 7.9052-15.032 6.993-23.718 8.3324 5.3134-6.5992 8.9079-14.425 20.463-16.569l8.7388-2.3623-5.4832 10.599z" fill="url(#f)" fill-rule="evenodd"/>
   <path d="m738.23 87.618c-3.9756 5.5927-12.694 5.841-20.201 7.4539 4.2247-4.7569 6.8693-10.168 16.832-12.55l7.4877-2.2847-4.1191 7.3806z" fill="#7fff2a" fill-rule="evenodd"/>
   <path d="m705.17 106.1c4.7446-4.1516 26.689-19.572 26.689-19.572" fill="none" stroke="#eaf200" stroke-width="1.8501"/>
  </g>
  <g transform="matrix(.80099 -.59868 .59868 .80099 -16.057 468.35)">
   <path d="m736.15 91.931c-5.8516 9.1435-17.169 8.0884-27.09 9.6376 6.0688-7.6328 10.174-16.685 23.372-19.165l9.9812-2.7323-6.2628 12.259z" fill="#250" fill-rule="evenodd"/>
   <path d="m737.52 89.678c-5.1233 7.9052-15.032 6.993-23.718 8.3324 5.3134-6.5992 8.9079-14.425 20.463-16.569l8.7388-2.3623-5.4832 10.599z" fill="url(#f)" fill-rule="evenodd"/>
   <path d="m738.23 87.618c-3.9756 5.5927-12.694 5.841-20.201 7.4539 4.2247-4.7569 6.8693-10.168 16.832-12.55l7.4877-2.2847-4.1191 7.3806z" fill="#7fff2a" fill-rule="evenodd"/>
   <path d="m705.17 106.1c4.7446-4.1516 26.689-19.572 26.689-19.572" fill="none" stroke="#eaf200" stroke-width="1.8501"/>
  </g>
  <path transform="matrix(-.08597 .49565 .62176 .07577 514.42 -37.95)" d="m253.57 130.16c-0.50714 4.2962-5.2588 2.179-6.0578-0.71508-1.2437-4.5043 2.9716-8.3736 7.1722-8.725 6.162-0.51553 11.019 4.9828 11.123 10.885 0.13231 7.565-6.6344 13.384-13.974 13.266-3.565-0.05701-7.0363-1.4373-9.7186-3.7764" fill="url(#e)" fill-rule="evenodd"/>
  <path transform="matrix(-.08597 .49565 .62176 .07577 516.15 -35.812)" d="m253.57 130.16c-0.50714 4.2962-5.2588 2.179-6.0578-0.71508-1.2437-4.5043 2.9716-8.3736 7.1722-8.725 6.162-0.51553 11.019 4.9828 11.123 10.885 0.13231 7.565-6.6344 13.384-13.974 13.266-3.565-0.05701-7.0363-1.4373-9.7186-3.7764" fill="#ffafb3" fill-rule="evenodd" stroke="#df4b6f" stroke-width="3.298"/>
  <path transform="matrix(.31516 -.27238 -.32981 -.26603 544.08 201.88)" d="m253.57 130.16c-0.50714 4.2962-5.2588 2.179-6.0578-0.71508-1.2437-4.5043 2.9716-8.3736 7.1722-8.725 6.162-0.51553 11.019 4.9828 11.123 10.885 0.13231 7.565-6.6344 13.384-13.974 13.266-3.565-0.05701-7.0363-1.4373-9.7186-3.7764" fill="#ffafb3" fill-rule="evenodd" stroke="#df4b6f" stroke-width="4.4394"/>
  <path transform="matrix(-.33776 -.22963 -.25661 .29803 690.7 116.44)" d="m253.57 130.16c-0.50714 4.2962-5.2588 2.179-6.0578-0.71508-1.2437-4.5043 2.9716-8.3736 7.1722-8.725 6.162-0.51553 11.019 4.9828 11.123 10.885 0.13231 7.565-6.6344 13.384-13.974 13.266-3.565-0.05701-7.0363-1.4373-9.7186-3.7764" fill="#ffafb3" fill-rule="evenodd" stroke="#df4b6f" stroke-width="4.6312"/>
  <path transform="matrix(-.57193 -.16835 -.21049 .41352 746.92 83.244)" d="m253.57 130.16c-0.50714 4.2962-5.2588 2.179-6.0578-0.71508-1.2437-4.5043 2.9716-8.3736 7.1722-8.725 6.162-0.51553 11.019 4.9828 11.123 10.885 0.13231 7.565-6.6344 13.384-13.974 13.266-3.565-0.05701-7.0363-1.4373-9.7186-3.7764" fill="#ffb6b9" fill-rule="evenodd" stroke="#f66183" stroke-width="3.5478"/>
  <path transform="matrix(.39999 .34961 .45703 -.29444 413.73 48.337)" d="m253.57 130.16c-0.50714 4.2962-5.2588 2.179-6.0578-0.71508-1.2437-4.5043 2.9716-8.3736 7.1722-8.725 6.162-0.51553 11.019 4.9828 11.123 10.885 0.13231 7.565-6.6344 13.384-13.974 13.266-3.565-0.05701-7.0363-1.4373-9.7186-3.7764" fill="#ffafb3" fill-rule="evenodd" stroke="#df4b6f" stroke-width="3.5117"/>
  <path transform="matrix(.40193 -.22163 -.19205 -.39735 501.88 203.06)" d="m253.57 130.16c-0.50714 4.2962-5.2588 2.179-6.0578-0.71508-1.2437-4.5043 2.9716-8.3736 7.1722-8.725 6.162-0.51553 11.019 4.9828 11.123 10.885 0.13231 7.565-6.6344 13.384-13.974 13.266-3.565-0.05701-7.0363-1.4373-9.7186-3.7764" fill="#ffb5b3" fill-rule="evenodd" stroke="#f77494" stroke-width="4.1137"/>
  <path transform="matrix(-.03519 .21797 -.29035 -.03058 622.63 44.659)" d="m253.57 130.16c-0.50714 4.2962-5.2588 2.179-6.0578-0.71508-1.2437-4.5043 2.9716-8.3736 7.1722-8.725 6.162-0.51553 11.019 4.9828 11.123 10.885 0.13231 7.565-6.6344 13.384-13.974 13.266-3.565-0.05701-7.0363-1.4373-9.7186-3.7764" fill="#ffaaae" fill-rule="evenodd" stroke="#fc6098" stroke-width="7.2924"/>
  <path transform="matrix(-.13013 .43912 .46151 .12447 546.64 -31.991)" d="m253.57 130.16c-0.50714 4.2962-5.2588 2.179-6.0578-0.71508-1.2437-4.5043 2.9716-8.3736 7.1722-8.725 6.162-0.51553 11.019 4.9828 11.123 10.885 0.13231 7.565-6.6344 13.384-13.974 13.266-3.565-0.05701-7.0363-1.4373-9.7186-3.7764" fill="#ffb6b9" fill-rule="evenodd" stroke="#f66183" stroke-width="3.9547"/>
  <path transform="matrix(.29365 -.26982 -.30609 -.26221 543.55 199.06)" d="m253.57 130.16c-0.50714 4.2962-5.2588 2.179-6.0578-0.71508-1.2437-4.5043 2.9716-8.3736 7.1722-8.725 6.162-0.51553 11.019 4.9828 11.123 10.885 0.13231 7.565-6.6344 13.384-13.974 13.266-3.565-0.05701-7.0363-1.4373-9.7186-3.7764" fill="#ffafb3" fill-rule="evenodd" stroke="#df4b6f" stroke-width="4.6312"/>
  <path transform="matrix(-.23469 -.23307 -.35318 .1448 680.2 134.54)" d="m253.57 130.16c-0.50714 4.2962-5.2588 2.179-6.0578-0.71508-1.2437-4.5043 2.9716-8.3736 7.1722-8.725 6.162-0.51553 11.019 4.9828 11.123 10.885 0.13231 7.565-6.6344 13.384-13.974 13.266-3.565-0.05701-7.0363-1.4373-9.7186-3.7764" fill="#ffb5b3" fill-rule="evenodd" stroke="#f77494" stroke-width="5.4251"/>
  <path transform="matrix(-.15856 .27698 .2822 .24052 577.27 -5.242)" d="m253.57 130.16c-0.50714 4.2962-5.2588 2.179-6.0578-0.71508-1.2437-4.5043 2.9716-8.3736 7.1722-8.725 6.162-0.51553 11.019 4.9828 11.123 10.885 0.13231 7.565-6.6344 13.384-13.974 13.266-3.565-0.05701-7.0363-1.4373-9.7186-3.7764" fill="#ffb5b3" fill-rule="evenodd" stroke="#f77494" stroke-width="5.4251"/>
  <path transform="matrix(.20415 .00722 -.00678 .18104 524.27 70.125)" d="m253.57 130.16c-0.50714 4.2962-5.2588 2.179-6.0578-0.71508-1.2437-4.5043 2.9716-8.3736 7.1722-8.725 6.162-0.51553 11.019 4.9828 11.123 10.885 0.13231 7.565-6.6344 13.384-13.974 13.266-3.565-0.05701-7.0363-1.4373-9.7186-3.7764" fill="#ffaaae" fill-rule="evenodd" stroke="#fc6098" stroke-width="9.6172"/>
  <g transform="matrix(1.307 .0462 -.04561 1.2171 47.459 -55.549)" fill="url(#d)" fill-rule="evenodd">
   <path transform="matrix(-.051498 .40918 .47726 .044135 357.56 1.3697)" d="m253.57 130.16c-0.50714 4.2962-5.2588 2.179-6.0578-0.71508-1.2437-4.5043 2.9716-8.3736 7.1722-8.725 6.162-0.51553 11.019 4.9828 11.123 10.885 0.13231 7.565-6.6344 13.384-13.974 13.266-3.565-0.05701-7.0363-1.4373-9.7186-3.7764"/>
   <path transform="matrix(-.051498 .40918 .47726 .044135 358.95 3.0736)" d="m253.57 130.16c-0.50714 4.2962-5.2588 2.179-6.0578-0.71508-1.2437-4.5043 2.9716-8.3736 7.1722-8.725 6.162-0.51553 11.019 4.9828 11.123 10.885 0.13231 7.565-6.6344 13.384-13.974 13.266-3.565-0.05701-7.0363-1.4373-9.7186-3.7764" stroke="#df4b6f" stroke-width="3.298"/>
   <path transform="matrix(.23302 -.23263 -.25963 -.20871 387.1 197.29)" d="m253.57 130.16c-0.50714 4.2962-5.2588 2.179-6.0578-0.71508-1.2437-4.5043 2.9716-8.3736 7.1722-8.725 6.162-0.51553 11.019 4.9828 11.123 10.885 0.13231 7.565-6.6344 13.384-13.974 13.266-3.565-0.05701-7.0363-1.4373-9.7186-3.7764" stroke="#df4b6f" stroke-width="4.4394"/>
   <path transform="matrix(-.26466 -.17862 -.18755 .25198 496.69 122.94)" d="m253.57 130.16c-0.50714 4.2962-5.2588 2.179-6.0578-0.71508-1.2437-4.5043 2.9716-8.3736 7.1722-8.725 6.162-0.51553 11.019 4.9828 11.123 10.885 0.13231 7.565-6.6344 13.384-13.974 13.266-3.565-0.05701-7.0363-1.4373-9.7186-3.7764" stroke="#df4b6f" stroke-width="4.6312"/>
   <path transform="matrix(-.44184 -.12154 -.149 .3454 538.7 94.067)" d="m253.57 130.16c-0.50714 4.2962-5.2588 2.179-6.0578-0.71508-1.2437-4.5043 2.9716-8.3736 7.1722-8.725 6.162-0.51553 11.019 4.9828 11.123 10.885 0.13231 7.565-6.6344 13.384-13.974 13.266-3.565-0.05701-7.0363-1.4373-9.7186-3.7764" stroke="#f66183" stroke-width="3.5478"/>
   <path transform="matrix(.31565 .27526 .3408 -.25485 283.1 75.089)" d="m253.57 130.16c-0.50714 4.2962-5.2588 2.179-6.0578-0.71508-1.2437-4.5043 2.9716-8.3736 7.1722-8.725 6.162-0.51553 11.019 4.9828 11.123 10.885 0.13231 7.565-6.6344 13.384-13.974 13.266-3.565-0.05701-7.0363-1.4373-9.7186-3.7764" stroke="#df4b6f" stroke-width="3.5117"/>
   <path transform="matrix(.30077 -.19351 -.15812 -.32046 354.88 199.49)" d="m253.57 130.16c-0.50714 4.2962-5.2588 2.179-6.0578-0.71508-1.2437-4.5043 2.9716-8.3736 7.1722-8.725 6.162-0.51553 11.019 4.9828 11.123 10.885 0.13231 7.565-6.6344 13.384-13.974 13.266-3.565-0.05701-7.0363-1.4373-9.7186-3.7764" stroke="#f77494" stroke-width="4.1137"/>
   <path transform="matrix(-.020648 .17987 -.22274 -.016674 442.62 66.012)" d="m253.57 130.16c-0.50714 4.2962-5.2588 2.179-6.0578-0.71508-1.2437-4.5043 2.9716-8.3736 7.1722-8.725 6.162-0.51553 11.019 4.9828 11.123 10.885 0.13231 7.565-6.6344 13.384-13.974 13.266-3.565-0.05701-7.0363-1.4373-9.7186-3.7764" stroke="#fc6098" stroke-width="7.2924"/>
   <path transform="matrix(-.086861 .36408 .35621 .088747 382.36 5.3243)" d="m253.57 130.16c-0.50714 4.2962-5.2588 2.179-6.0578-0.71508-1.2437-4.5043 2.9716-8.3736 7.1722-8.725 6.162-0.51553 11.019 4.9828 11.123 10.885 0.13231 7.565-6.6344 13.384-13.974 13.266-3.565-0.05701-7.0363-1.4373-9.7186-3.7764" stroke="#f66183" stroke-width="3.9547"/>
   <path transform="matrix(.21666 -.22991 -.2414 -.20627 386.61 194.99)" d="m253.57 130.16c-0.50714 4.2962-5.2588 2.179-6.0578-0.71508-1.2437-4.5043 2.9716-8.3736 7.1722-8.725 6.162-0.51553 11.019 4.9828 11.123 10.885 0.13231 7.565-6.6344 13.384-13.974 13.266-3.565-0.05701-7.0363-1.4373-9.7186-3.7764" stroke="#df4b6f" stroke-width="4.6312"/>
   <path transform="matrix(-.186 -.18443 -.26573 .12905 489.18 138.09)" d="m253.57 130.16c-0.50714 4.2962-5.2588 2.179-6.0578-0.71508-1.2437-4.5043 2.9716-8.3736 7.1722-8.725 6.162-0.51553 11.019 4.9828 11.123 10.885 0.13231 7.565-6.6344 13.384-13.974 13.266-3.565-0.05701-7.0363-1.4373-9.7186-3.7764" stroke="#f77494" stroke-width="5.4251"/>
   <path transform="matrix(-.11323 .23186 .22252 .18917 406.52 26.384)" d="m253.57 130.16c-0.50714 4.2962-5.2588 2.179-6.0578-0.71508-1.2437-4.5043 2.9716-8.3736 7.1722-8.725 6.162-0.51553 11.019 4.9828 11.123 10.885 0.13231 7.565-6.6344 13.384-13.974 13.266-3.565-0.05701-7.0363-1.4373-9.7186-3.7764" stroke="#f77494" stroke-width="5.4251"/>
   <path transform="matrix(.1562 0 0 .14874 368.19 89.76)" d="m253.57 130.16c-0.50714 4.2962-5.2588 2.179-6.0578-0.71508-1.2437-4.5043 2.9716-8.3736 7.1722-8.725 6.162-0.51553 11.019 4.9828 11.123 10.885 0.13231 7.565-6.6344 13.384-13.974 13.266-3.565-0.05701-7.0363-1.4373-9.7186-3.7764" stroke="#fc6098" stroke-width="9.6172"/>
  </g>
  <g transform="matrix(-.15969 .53627 -.54046 -.16094 704.79 -62.872)">
   <path d="m392.53 51.96c1.2218-3.2403 1.3268-6.6402 10.065-8.8068 17.395-2.3393 22.552 4.3709 31.872 9.2262-11.156 6.6858-23.851 12.363-32.711 11.323-7.7864-1.8951-9.1899-6.5258-9.2262-11.742z" fill="url(#c)" fill-rule="evenodd"/>
   <path d="m389.6 53.637 34.388-1.2581" fill="none" stroke="#575700" stroke-width="3.2936"/>
  </g>
  <g transform="matrix(.094737 -.55147 .55577 .095477 571.68 339.87)">
   <path d="m392.53 51.96c1.2218-3.2403 1.3268-6.6402 10.065-8.8068 17.395-2.3393 22.552 4.3709 31.872 9.2262-11.156 6.6858-23.851 12.363-32.711 11.323-7.7864-1.8951-9.1899-6.5258-9.2262-11.742z" fill="url(#c)" fill-rule="evenodd"/>
   <path d="m389.6 53.637 34.388-1.2581" fill="none" stroke="#575700" stroke-width="3.2936"/>
  </g>
  <g transform="matrix(.19202 -.52557 .52967 .19351 483.28 309.24)">
   <path d="m392.53 51.96c1.2218-3.2403 1.3268-6.6402 10.065-8.8068 17.395-2.3393 22.552 4.3709 31.872 9.2262-11.156 6.6858-23.851 12.363-32.711 11.323-7.7864-1.8951-9.1899-6.5258-9.2262-11.742z" fill="url(#c)" fill-rule="evenodd"/>
   <path d="m389.6 53.637 34.388-1.2581" fill="none" stroke="#575700" stroke-width="3.2936"/>
  </g>
  <path transform="matrix(.475 0 0 .4813 466.07 43.472)" d="m330.88 147.16a11.742 10.484 0 1 1 -23.485 0 11.742 10.484 0 1 1 23.485 0z" fill="#c83737" fill-rule="evenodd"/>
  <path transform="matrix(.28839 0 0 .19252 525.82 87.381)" d="m330.88 147.16a11.742 10.484 0 1 1 -23.485 0 11.742 10.484 0 1 1 23.485 0z" fill="#de8787" fill-rule="evenodd" filter="url(#a)"/>
  <path transform="matrix(.475 0 0 .4813 474.04 42.463)" d="m330.88 147.16a11.742 10.484 0 1 1 -23.485 0 11.742 10.484 0 1 1 23.485 0z" fill="#c83737" fill-rule="evenodd"/>
  <path transform="matrix(.28839 0 0 .19252 533.79 86.372)" d="m330.88 147.16a11.742 10.484 0 1 1 -23.485 0 11.742 10.484 0 1 1 23.485 0z" fill="#de8787" fill-rule="evenodd" filter="url(#a)"/>
  <path transform="matrix(.475 0 0 .4813 464.47 49.931)" d="m330.88 147.16a11.742 10.484 0 1 1 -23.485 0 11.742 10.484 0 1 1 23.485 0z" fill="#c83737" fill-rule="evenodd"/>
  <path transform="matrix(.28839 0 0 .19252 524.23 93.84)" d="m330.88 147.16a11.742 10.484 0 1 1 -23.485 0 11.742 10.484 0 1 1 23.485 0z" fill="#de8787" fill-rule="evenodd" filter="url(#a)"/>
  <path transform="matrix(.475 0 0 .4813 471.25 52.353)" d="m330.88 147.16a11.742 10.484 0 1 1 -23.485 0 11.742 10.484 0 1 1 23.485 0z" fill="#c83737" fill-rule="evenodd"/>
  <path transform="matrix(.28839 0 0 .19252 531 96.262)" d="m330.88 147.16a11.742 10.484 0 1 1 -23.485 0 11.742 10.484 0 1 1 23.485 0z" fill="#de8787" fill-rule="evenodd" filter="url(#a)"/>
  <path transform="matrix(.475 0 0 .4813 477.22 47.307)" d="m330.88 147.16a11.742 10.484 0 1 1 -23.485 0 11.742 10.484 0 1 1 23.485 0z" fill="#c83737" fill-rule="evenodd"/>
  <path transform="matrix(.28839 0 0 .19252 536.98 91.216)" d="m330.88 147.16a11.742 10.484 0 1 1 -23.485 0 11.742 10.484 0 1 1 23.485 0z" fill="#de8787" fill-rule="evenodd" filter="url(#a)"/>
  <path transform="matrix(.475 0 0 .4813 474.04 85.254)" d="m318.72 67.267a7.1293 6.0809 0 1 1 -14.259 0 7.1293 6.0809 0 1 1 14.259 0z" fill="#cf0" fill-rule="evenodd" stroke="#00db00" stroke-width="3.8694"/>
  <path transform="matrix(.31716 .10285 -.13934 .23411 532.89 69.025)" d="m318.72 67.267a7.1293 6.0809 0 1 1 -14.259 0 7.1293 6.0809 0 1 1 14.259 0z" fill="#ffe680" fill-rule="evenodd" filter="url(#i)" stroke="#00db00" stroke-width="6.2162"/>
  <path transform="matrix(.475 0 0 .4813 477.22 47.307)" d="m330.88 147.16a11.742 10.484 0 1 1 -23.485 0 11.742 10.484 0 1 1 23.485 0z" fill="#c83737" fill-rule="evenodd"/>
  <path transform="matrix(.28839 0 0 .19252 536.98 91.216)" d="m330.88 147.16a11.742 10.484 0 1 1 -23.485 0 11.742 10.484 0 1 1 23.485 0z" fill="#de8787" fill-rule="evenodd" filter="url(#a)"/>
  <path transform="matrix(.475 0 0 .4813 471.25 52.353)" d="m330.88 147.16a11.742 10.484 0 1 1 -23.485 0 11.742 10.484 0 1 1 23.485 0z" fill="#c83737" fill-rule="evenodd"/>
  <path transform="matrix(.28839 0 0 .19252 531 96.262)" d="m330.88 147.16a11.742 10.484 0 1 1 -23.485 0 11.742 10.484 0 1 1 23.485 0z" fill="#de8787" fill-rule="evenodd" filter="url(#a)"/>
  <g transform="matrix(.65806 0 0 .73226 487.85 37.745)" fill-rule="evenodd">
   <path d="m167.84 105.36 5.3377 0.59308c2.9676 4.844-3.1948 7.4056-5.9308 10.824-0.86508-4.008-6.0528-8.8394 0.59308-11.417z" fill="#fc0"/>
   <path d="m168.14 101.02 0.55325 4.4454c-4.1039 3.2688-7.9149-1.2901-11.836-2.9114 3.7331-1.4114 7.3535-6.4833 11.283-1.534z" fill="#fc0"/>
   <path d="m173.95 100.7-5.1914 1.484c-4.5174-3.7158 0.30313-8.6944 1.6193-13.199 2.2548 3.6945 8.8377 6.5322 3.5721 11.715z" fill="#fc0"/>
   <path d="m176.59 103.13-1.8374-5.0465c3.0239-4.8091 8.0542-0.42364 12.332 0.51127-3.2078 2.554-5.2351 9.3469-10.494 4.5352z" fill="#fc0"/>
   <path d="m173.6 106.77 3.8841-3.7091c5.6186 0.83843 3.622 7.2063 4.4832 11.499-3.6271-1.9124-10.662-1.0415-8.3673-7.79z" fill="#fc0"/>
   <path transform="matrix(.59645 0 0 .66475 60.333 29.943)" d="m191.84 114.7 3.8841-3.7091c5.6186 0.83843 3.622 7.2063 4.4832 11.499-3.6271-1.9124-10.662-1.0415-8.3673-7.79z" fill="#a0892c" filter="url(#b)"/>
   <path transform="matrix(-.31428 .50694 -.56499 -.35026 293.34 43.839)" d="m191.84 114.7 3.8841-3.7091c5.6186 0.83843 3.622 7.2063 4.4832 11.499-3.6271-1.9124-10.662-1.0415-8.3673-7.79z" fill="#a0892c" filter="url(#b)"/>
   <path transform="matrix(.4297 .41366 -.46102 .47891 139.24 -27.724)" d="m191.84 114.7 3.8841-3.7091c5.6186 0.83843 3.622 7.2063 4.4832 11.499-3.6271-1.9124-10.662-1.0415-8.3673-7.79z" fill="#a0892c" filter="url(#b)"/>
   <path transform="matrix(.15882 -.57492 .64076 .177 73.297 192.26)" d="m191.84 114.7 3.8841-3.7091c5.6186 0.83843 3.622 7.2063 4.4832 11.499-3.6271-1.9124-10.662-1.0415-8.3673-7.79z" fill="#a0892c" filter="url(#b)"/>
   <path transform="matrix(.59645 0 0 .66475 54.55 18.675)" d="m191.84 114.7 3.8841-3.7091c5.6186 0.83843 3.622 7.2063 4.4832 11.499-3.6271-1.9124-10.662-1.0415-8.3673-7.79z" fill="#a0892c" filter="url(#b)"/>
   <path transform="translate(-67.389 -24.537)" d="m244.65 127.6a4.7446 4.2998 0 1 1 -9.4893 0 4.7446 4.2998 0 1 1 9.4893 0z" fill="#540"/>
   <path transform="matrix(.65625 0 0 .83621 15.003 -4.4169)" d="m244.65 127.6a4.7446 4.2998 0 1 1 -9.4893 0 4.7446 4.2998 0 1 1 9.4893 0z" fill="#1a1a1a" filter="url(#h)"/>
  </g>
  <path transform="matrix(-.07399 .40159 .53512 .06139 542.3 12.702)" d="m253.57 130.16c-0.50714 4.2962-5.2588 2.179-6.0578-0.71508-1.2437-4.5043 2.9716-8.3736 7.1722-8.725 6.162-0.51553 11.019 4.9828 11.123 10.885 0.13231 7.565-6.6344 13.384-13.974 13.266-3.565-0.05701-7.0363-1.4373-9.7186-3.7764" fill="url(#e)" fill-rule="evenodd"/>
  <path transform="matrix(-.07399 .40159 .53512 .06139 543.78 14.434)" d="m253.57 130.16c-0.50714 4.2962-5.2588 2.179-6.0578-0.71508-1.2437-4.5043 2.9716-8.3736 7.1722-8.725 6.162-0.51553 11.019 4.9828 11.123 10.885 0.13231 7.565-6.6344 13.384-13.974 13.266-3.565-0.05701-7.0363-1.4373-9.7186-3.7764" fill="#ffafb3" fill-rule="evenodd" stroke="#df4b6f" stroke-width="3.9494"/>
  <path transform="matrix(.27124 -.22069 -.28385 -.21554 567.82 207.02)" d="m253.57 130.16c-0.50714 4.2962-5.2588 2.179-6.0578-0.71508-1.2437-4.5043 2.9716-8.3736 7.1722-8.725 6.162-0.51553 11.019 4.9828 11.123 10.885 0.13231 7.565-6.6344 13.384-13.974 13.266-3.565-0.05701-7.0363-1.4373-9.7186-3.7764" fill="#ffafb3" fill-rule="evenodd" stroke="#df4b6f" stroke-width="5.3162"/>
  <path transform="matrix(-.2907 -.18606 -.22085 .24147 694.02 137.8)" d="m253.57 130.16c-0.50714 4.2962-5.2588 2.179-6.0578-0.71508-1.2437-4.5043 2.9716-8.3736 7.1722-8.725 6.162-0.51553 11.019 4.9828 11.123 10.885 0.13231 7.565-6.6344 13.384-13.974 13.266-3.565-0.05701-7.0363-1.4373-9.7186-3.7764" fill="#ffafb3" fill-rule="evenodd" stroke="#df4b6f" stroke-width="5.546"/>
  <path transform="matrix(-.49223 -.1364 -.18116 .33505 742.4 110.9)" d="m253.57 130.16c-0.50714 4.2962-5.2588 2.179-6.0578-0.71508-1.2437-4.5043 2.9716-8.3736 7.1722-8.725 6.162-0.51553 11.019 4.9828 11.123 10.885 0.13231 7.565-6.6344 13.384-13.974 13.266-3.565-0.05701-7.0363-1.4373-9.7186-3.7764" fill="#ffb6b9" fill-rule="evenodd" stroke="#f66183" stroke-width="4.2485"/>
  <path transform="matrix(.34425 .28327 .39335 -.23857 455.64 82.615)" d="m253.57 130.16c-0.50714 4.2962-5.2588 2.179-6.0578-0.71508-1.2437-4.5043 2.9716-8.3736 7.1722-8.725 6.162-0.51553 11.019 4.9828 11.123 10.885 0.13231 7.565-6.6344 13.384-13.974 13.266-3.565-0.05701-7.0363-1.4373-9.7186-3.7764" fill="#ffafb3" fill-rule="evenodd" stroke="#df4b6f" stroke-width="4.2053"/>
  <path transform="matrix(.34592 -.17958 -.16529 -.32194 531.5 207.98)" d="m253.57 130.16c-0.50714 4.2962-5.2588 2.179-6.0578-0.71508-1.2437-4.5043 2.9716-8.3736 7.1722-8.725 6.162-0.51553 11.019 4.9828 11.123 10.885 0.13231 7.565-6.6344 13.384-13.974 13.266-3.565-0.05701-7.0363-1.4373-9.7186-3.7764" fill="#ffb5b3" fill-rule="evenodd" stroke="#f77494" stroke-width="4.9262"/>
  <path transform="matrix(-.03029 .17661 -.24989 -.02478 635.43 79.635)" d="m253.57 130.16c-0.50714 4.2962-5.2588 2.179-6.0578-0.71508-1.2437-4.5043 2.9716-8.3736 7.1722-8.725 6.162-0.51553 11.019 4.9828 11.123 10.885 0.13231 7.565-6.6344 13.384-13.974 13.266-3.565-0.05701-7.0363-1.4373-9.7186-3.7764" fill="#ffaaae" fill-rule="evenodd" stroke="#fc6098" stroke-width="8.7328"/>
  <path transform="matrix(-.112 .3558 .3972 .10085 570.03 17.53)" d="m253.57 130.16c-0.50714 4.2962-5.2588 2.179-6.0578-0.71508-1.2437-4.5043 2.9716-8.3736 7.1722-8.725 6.162-0.51553 11.019 4.9828 11.123 10.885 0.13231 7.565-6.6344 13.384-13.974 13.266-3.565-0.05701-7.0363-1.4373-9.7186-3.7764" fill="#ffb6b9" fill-rule="evenodd" stroke="#f66183" stroke-width="4.7358"/>
  <path transform="matrix(.25273 -.21862 -.26344 -.21245 567.37 204.74)" d="m253.57 130.16c-0.50714 4.2962-5.2588 2.179-6.0578-0.71508-1.2437-4.5043 2.9716-8.3736 7.1722-8.725 6.162-0.51553 11.019 4.9828 11.123 10.885 0.13231 7.565-6.6344 13.384-13.974 13.266-3.565-0.05701-7.0363-1.4373-9.7186-3.7764" fill="#ffafb3" fill-rule="evenodd" stroke="#df4b6f" stroke-width="5.546"/>
  <path transform="matrix(-.20198 -.18885 -.30397 .11732 684.98 152.46)" d="m253.57 130.16c-0.50714 4.2962-5.2588 2.179-6.0578-0.71508-1.2437-4.5043 2.9716-8.3736 7.1722-8.725 6.162-0.51553 11.019 4.9828 11.123 10.885 0.13231 7.565-6.6344 13.384-13.974 13.266-3.565-0.05701-7.0363-1.4373-9.7186-3.7764" fill="#ffb5b3" fill-rule="evenodd" stroke="#f77494" stroke-width="6.4966"/>
  <path transform="matrix(-.13646 .22442 .24287 .19488 596.39 39.203)" d="m253.57 130.16c-0.50714 4.2962-5.2588 2.179-6.0578-0.71508-1.2437-4.5043 2.9716-8.3736 7.1722-8.725 6.162-0.51553 11.019 4.9828 11.123 10.885 0.13231 7.565-6.6344 13.384-13.974 13.266-3.565-0.05701-7.0363-1.4373-9.7186-3.7764" fill="#ffb5b3" fill-rule="evenodd" stroke="#f77494" stroke-width="6.4966"/>
  <path transform="matrix(.1757 .00585 -.00584 .14668 550.78 100.27)" d="m253.57 130.16c-0.50714 4.2962-5.2588 2.179-6.0578-0.71508-1.2437-4.5043 2.9716-8.3736 7.1722-8.725 6.162-0.51553 11.019 4.9828 11.123 10.885 0.13231 7.565-6.6344 13.384-13.974 13.266-3.565-0.05701-7.0363-1.4373-9.7186-3.7764" fill="#ffaaae" fill-rule="evenodd" stroke="#fc6098" stroke-width="11.517"/>
  <g transform="matrix(1.1248 .03743 -.03925 .98618 140.41 -1.5577)" fill="url(#d)" fill-rule="evenodd">
   <path transform="matrix(-.051498 .40918 .47726 .044135 357.56 1.3697)" d="m253.57 130.16c-0.50714 4.2962-5.2588 2.179-6.0578-0.71508-1.2437-4.5043 2.9716-8.3736 7.1722-8.725 6.162-0.51553 11.019 4.9828 11.123 10.885 0.13231 7.565-6.6344 13.384-13.974 13.266-3.565-0.05701-7.0363-1.4373-9.7186-3.7764"/>
   <path transform="matrix(-.051498 .40918 .47726 .044135 358.95 3.0736)" d="m253.57 130.16c-0.50714 4.2962-5.2588 2.179-6.0578-0.71508-1.2437-4.5043 2.9716-8.3736 7.1722-8.725 6.162-0.51553 11.019 4.9828 11.123 10.885 0.13231 7.565-6.6344 13.384-13.974 13.266-3.565-0.05701-7.0363-1.4373-9.7186-3.7764" stroke="#df4b6f" stroke-width="3.9494"/>
   <path transform="matrix(.23302 -.23263 -.25963 -.20871 387.1 197.29)" d="m253.57 130.16c-0.50714 4.2962-5.2588 2.179-6.0578-0.71508-1.2437-4.5043 2.9716-8.3736 7.1722-8.725 6.162-0.51553 11.019 4.9828 11.123 10.885 0.13231 7.565-6.6344 13.384-13.974 13.266-3.565-0.05701-7.0363-1.4373-9.7186-3.7764" stroke="#df4b6f" stroke-width="5.3162"/>
   <path transform="matrix(-.26466 -.17862 -.18755 .25198 496.69 122.94)" d="m253.57 130.16c-0.50714 4.2962-5.2588 2.179-6.0578-0.71508-1.2437-4.5043 2.9716-8.3736 7.1722-8.725 6.162-0.51553 11.019 4.9828 11.123 10.885 0.13231 7.565-6.6344 13.384-13.974 13.266-3.565-0.05701-7.0363-1.4373-9.7186-3.7764" stroke="#df4b6f" stroke-width="5.546"/>
   <path transform="matrix(-.44184 -.12154 -.149 .3454 538.7 94.067)" d="m253.57 130.16c-0.50714 4.2962-5.2588 2.179-6.0578-0.71508-1.2437-4.5043 2.9716-8.3736 7.1722-8.725 6.162-0.51553 11.019 4.9828 11.123 10.885 0.13231 7.565-6.6344 13.384-13.974 13.266-3.565-0.05701-7.0363-1.4373-9.7186-3.7764" stroke="#f66183" stroke-width="4.2485"/>
   <path transform="matrix(.31565 .27526 .3408 -.25485 283.1 75.089)" d="m253.57 130.16c-0.50714 4.2962-5.2588 2.179-6.0578-0.71508-1.2437-4.5043 2.9716-8.3736 7.1722-8.725 6.162-0.51553 11.019 4.9828 11.123 10.885 0.13231 7.565-6.6344 13.384-13.974 13.266-3.565-0.05701-7.0363-1.4373-9.7186-3.7764" stroke="#df4b6f" stroke-width="4.2053"/>
   <path transform="matrix(.30077 -.19351 -.15812 -.32046 354.88 199.49)" d="m253.57 130.16c-0.50714 4.2962-5.2588 2.179-6.0578-0.71508-1.2437-4.5043 2.9716-8.3736 7.1722-8.725 6.162-0.51553 11.019 4.9828 11.123 10.885 0.13231 7.565-6.6344 13.384-13.974 13.266-3.565-0.05701-7.0363-1.4373-9.7186-3.7764" stroke="#f77494" stroke-width="4.9262"/>
   <path transform="matrix(-.020648 .17987 -.22274 -.016674 442.62 66.012)" d="m253.57 130.16c-0.50714 4.2962-5.2588 2.179-6.0578-0.71508-1.2437-4.5043 2.9716-8.3736 7.1722-8.725 6.162-0.51553 11.019 4.9828 11.123 10.885 0.13231 7.565-6.6344 13.384-13.974 13.266-3.565-0.05701-7.0363-1.4373-9.7186-3.7764" stroke="#fc6098" stroke-width="8.7328"/>
   <path transform="matrix(-.086861 .36408 .35621 .088747 382.36 5.3243)" d="m253.57 130.16c-0.50714 4.2962-5.2588 2.179-6.0578-0.71508-1.2437-4.5043 2.9716-8.3736 7.1722-8.725 6.162-0.51553 11.019 4.9828 11.123 10.885 0.13231 7.565-6.6344 13.384-13.974 13.266-3.565-0.05701-7.0363-1.4373-9.7186-3.7764" stroke="#f66183" stroke-width="4.7358"/>
   <path transform="matrix(.21666 -.22991 -.2414 -.20627 386.61 194.99)" d="m253.57 130.16c-0.50714 4.2962-5.2588 2.179-6.0578-0.71508-1.2437-4.5043 2.9716-8.3736 7.1722-8.725 6.162-0.51553 11.019 4.9828 11.123 10.885 0.13231 7.565-6.6344 13.384-13.974 13.266-3.565-0.05701-7.0363-1.4373-9.7186-3.7764" stroke="#df4b6f" stroke-width="5.546"/>
   <path transform="matrix(-.186 -.18443 -.26573 .12905 489.18 138.09)" d="m253.57 130.16c-0.50714 4.2962-5.2588 2.179-6.0578-0.71508-1.2437-4.5043 2.9716-8.3736 7.1722-8.725 6.162-0.51553 11.019 4.9828 11.123 10.885 0.13231 7.565-6.6344 13.384-13.974 13.266-3.565-0.05701-7.0363-1.4373-9.7186-3.7764" stroke="#f77494" stroke-width="6.4966"/>
   <path transform="matrix(-.11323 .23186 .22252 .18917 406.52 26.384)" d="m253.57 130.16c-0.50714 4.2962-5.2588 2.179-6.0578-0.71508-1.2437-4.5043 2.9716-8.3736 7.1722-8.725 6.162-0.51553 11.019 4.9828 11.123 10.885 0.13231 7.565-6.6344 13.384-13.974 13.266-3.565-0.05701-7.0363-1.4373-9.7186-3.7764" stroke="#f77494" stroke-width="6.4966"/>
   <path transform="matrix(.1562 0 0 .14874 368.19 89.76)" d="m253.57 130.16c-0.50714 4.2962-5.2588 2.179-6.0578-0.71508-1.2437-4.5043 2.9716-8.3736 7.1722-8.725 6.162-0.51553 11.019 4.9828 11.123 10.885 0.13231 7.565-6.6344 13.384-13.974 13.266-3.565-0.05701-7.0363-1.4373-9.7186-3.7764" stroke="#fc6098" stroke-width="11.517"/>
  </g>
  <g transform="matrix(.65806 0 0 .73226 486.07 22.918)" fill-rule="evenodd">
   <path d="m167.84 105.36 5.3377 0.59308c2.9676 4.844-3.1948 7.4056-5.9308 10.824-0.86508-4.008-6.0528-8.8394 0.59308-11.417z" fill="#fc0"/>
   <path d="m168.14 101.02 0.55325 4.4454c-4.1039 3.2688-7.9149-1.2901-11.836-2.9114 3.7331-1.4114 7.3535-6.4833 11.283-1.534z" fill="#fc0"/>
   <path d="m173.95 100.7-5.1914 1.484c-4.5174-3.7158 0.30313-8.6944 1.6193-13.199 2.2548 3.6945 8.8377 6.5322 3.5721 11.715z" fill="#fc0"/>
   <path d="m176.59 103.13-1.8374-5.0465c3.0239-4.8091 8.0542-0.42364 12.332 0.51127-3.2078 2.554-5.2351 9.3469-10.494 4.5352z" fill="#fc0"/>
   <path d="m173.6 106.77 3.8841-3.7091c5.6186 0.83843 3.622 7.2063 4.4832 11.499-3.6271-1.9124-10.662-1.0415-8.3673-7.79z" fill="#fc0"/>
   <path transform="matrix(.59645 0 0 .66475 60.333 29.943)" d="m191.84 114.7 3.8841-3.7091c5.6186 0.83843 3.622 7.2063 4.4832 11.499-3.6271-1.9124-10.662-1.0415-8.3673-7.79z" fill="#a0892c" filter="url(#b)"/>
   <path transform="matrix(-.31428 .50694 -.56499 -.35026 293.34 43.839)" d="m191.84 114.7 3.8841-3.7091c5.6186 0.83843 3.622 7.2063 4.4832 11.499-3.6271-1.9124-10.662-1.0415-8.3673-7.79z" fill="#a0892c" filter="url(#b)"/>
   <path transform="matrix(.4297 .41366 -.46102 .47891 139.24 -27.724)" d="m191.84 114.7 3.8841-3.7091c5.6186 0.83843 3.622 7.2063 4.4832 11.499-3.6271-1.9124-10.662-1.0415-8.3673-7.79z" fill="#a0892c" filter="url(#b)"/>
   <path transform="matrix(.15882 -.57492 .64076 .177 73.297 192.26)" d="m191.84 114.7 3.8841-3.7091c5.6186 0.83843 3.622 7.2063 4.4832 11.499-3.6271-1.9124-10.662-1.0415-8.3673-7.79z" fill="#a0892c" filter="url(#b)"/>
   <path transform="matrix(.59645 0 0 .66475 54.55 18.675)" d="m191.84 114.7 3.8841-3.7091c5.6186 0.83843 3.622 7.2063 4.4832 11.499-3.6271-1.9124-10.662-1.0415-8.3673-7.79z" fill="#a0892c" filter="url(#b)"/>
   <path transform="translate(-67.389 -24.537)" d="m244.65 127.6a4.7446 4.2998 0 1 1 -9.4893 0 4.7446 4.2998 0 1 1 9.4893 0z" fill="#540"/>
   <path transform="matrix(.65625 0 0 .83621 15.003 -4.4169)" d="m244.65 127.6a4.7446 4.2998 0 1 1 -9.4893 0 4.7446 4.2998 0 1 1 9.4893 0z" fill="#1a1a1a" filter="url(#h)"/>
  </g>
  <g transform="matrix(.65806 0 0 .73226 496.75 32.408)" fill-rule="evenodd">
   <path d="m167.84 105.36 5.3377 0.59308c2.9676 4.844-3.1948 7.4056-5.9308 10.824-0.86508-4.008-6.0528-8.8394 0.59308-11.417z" fill="#fc0"/>
   <path d="m168.14 101.02 0.55325 4.4454c-4.1039 3.2688-7.9149-1.2901-11.836-2.9114 3.7331-1.4114 7.3535-6.4833 11.283-1.534z" fill="#fc0"/>
   <path d="m173.95 100.7-5.1914 1.484c-4.5174-3.7158 0.30313-8.6944 1.6193-13.199 2.2548 3.6945 8.8377 6.5322 3.5721 11.715z" fill="#fc0"/>
   <path d="m176.59 103.13-1.8374-5.0465c3.0239-4.8091 8.0542-0.42364 12.332 0.51127-3.2078 2.554-5.2351 9.3469-10.494 4.5352z" fill="#fc0"/>
   <path d="m173.6 106.77 3.8841-3.7091c5.6186 0.83843 3.622 7.2063 4.4832 11.499-3.6271-1.9124-10.662-1.0415-8.3673-7.79z" fill="#fc0"/>
   <path transform="matrix(.59645 0 0 .66475 60.333 29.943)" d="m191.84 114.7 3.8841-3.7091c5.6186 0.83843 3.622 7.2063 4.4832 11.499-3.6271-1.9124-10.662-1.0415-8.3673-7.79z" fill="#a0892c" filter="url(#b)"/>
   <path transform="matrix(-.31428 .50694 -.56499 -.35026 293.34 43.839)" d="m191.84 114.7 3.8841-3.7091c5.6186 0.83843 3.622 7.2063 4.4832 11.499-3.6271-1.9124-10.662-1.0415-8.3673-7.79z" fill="#a0892c" filter="url(#b)"/>
   <path transform="matrix(.4297 .41366 -.46102 .47891 139.24 -27.724)" d="m191.84 114.7 3.8841-3.7091c5.6186 0.83843 3.622 7.2063 4.4832 11.499-3.6271-1.9124-10.662-1.0415-8.3673-7.79z" fill="#a0892c" filter="url(#b)"/>
   <path transform="matrix(.15882 -.57492 .64076 .177 73.297 192.26)" d="m191.84 114.7 3.8841-3.7091c5.6186 0.83843 3.622 7.2063 4.4832 11.499-3.6271-1.9124-10.662-1.0415-8.3673-7.79z" fill="#a0892c" filter="url(#b)"/>
   <path transform="matrix(.59645 0 0 .66475 54.55 18.675)" d="m191.84 114.7 3.8841-3.7091c5.6186 0.83843 3.622 7.2063 4.4832 11.499-3.6271-1.9124-10.662-1.0415-8.3673-7.79z" fill="#a0892c" filter="url(#b)"/>
   <path transform="translate(-67.389 -24.537)" d="m244.65 127.6a4.7446 4.2998 0 1 1 -9.4893 0 4.7446 4.2998 0 1 1 9.4893 0z" fill="#540"/>
   <path transform="matrix(.65625 0 0 .83621 15.003 -4.4169)" d="m244.65 127.6a4.7446 4.2998 0 1 1 -9.4893 0 4.7446 4.2998 0 1 1 9.4893 0z" fill="#1a1a1a" filter="url(#h)"/>
  </g>
  <g transform="matrix(.24546 .50283 -.50676 .24738 579.58 -66.543)">
   <path d="m392.53 51.96c1.2218-3.2403 1.3268-6.6402 10.065-8.8068 17.395-2.3393 22.552 4.3709 31.872 9.2262-11.156 6.6858-23.851 12.363-32.711 11.323-7.7864-1.8951-9.1899-6.5258-9.2262-11.742z" fill="url(#c)" fill-rule="evenodd"/>
   <path d="m389.6 53.637 34.388-1.2581" fill="none" stroke="#575700" stroke-width="3.2936"/>
  </g>
  <path transform="matrix(.475 0 0 .4813 486.84 78.134)" d="m330.88 147.16a11.742 10.484 0 1 1 -23.485 0 11.742 10.484 0 1 1 23.485 0z" fill="#c83737" fill-rule="evenodd"/>
  <path transform="matrix(.28839 0 0 .19252 546.59 122.04)" d="m330.88 147.16a11.742 10.484 0 1 1 -23.485 0 11.742 10.484 0 1 1 23.485 0z" fill="#de8787" fill-rule="evenodd" filter="url(#a)"/>
  <path transform="matrix(.475 0 0 .4813 494.81 77.125)" d="m330.88 147.16a11.742 10.484 0 1 1 -23.485 0 11.742 10.484 0 1 1 23.485 0z" fill="#c83737" fill-rule="evenodd"/>
  <path transform="matrix(.28839 0 0 .19252 554.56 121.03)" d="m330.88 147.16a11.742 10.484 0 1 1 -23.485 0 11.742 10.484 0 1 1 23.485 0z" fill="#de8787" fill-rule="evenodd" filter="url(#a)"/>
  <path transform="matrix(.475 0 0 .4813 485.25 84.593)" d="m330.88 147.16a11.742 10.484 0 1 1 -23.485 0 11.742 10.484 0 1 1 23.485 0z" fill="#c83737" fill-rule="evenodd"/>
  <path transform="matrix(.28839 0 0 .19252 545 128.5)" d="m330.88 147.16a11.742 10.484 0 1 1 -23.485 0 11.742 10.484 0 1 1 23.485 0z" fill="#de8787" fill-rule="evenodd" filter="url(#a)"/>
  <path transform="matrix(.475 0 0 .4813 492.02 87.015)" d="m330.88 147.16a11.742 10.484 0 1 1 -23.485 0 11.742 10.484 0 1 1 23.485 0z" fill="#c83737" fill-rule="evenodd"/>
  <path transform="matrix(.28839 0 0 .19252 551.77 130.92)" d="m330.88 147.16a11.742 10.484 0 1 1 -23.485 0 11.742 10.484 0 1 1 23.485 0z" fill="#de8787" fill-rule="evenodd" filter="url(#a)"/>
  <path transform="matrix(.475 0 0 .4813 498 81.969)" d="m330.88 147.16a11.742 10.484 0 1 1 -23.485 0 11.742 10.484 0 1 1 23.485 0z" fill="#c83737" fill-rule="evenodd"/>
  <path transform="matrix(.28839 0 0 .19252 557.75 125.88)" d="m330.88 147.16a11.742 10.484 0 1 1 -23.485 0 11.742 10.484 0 1 1 23.485 0z" fill="#de8787" fill-rule="evenodd" filter="url(#a)"/>
  <path transform="matrix(.475 0 0 .4813 494.81 119.92)" d="m318.72 67.267a7.1293 6.0809 0 1 1 -14.259 0 7.1293 6.0809 0 1 1 14.259 0z" fill="#cf0" fill-rule="evenodd" stroke="#00db00" stroke-width="3.8694"/>
  <path transform="matrix(.31716 .10285 -.13934 .23411 553.66 103.69)" d="m318.72 67.267a7.1293 6.0809 0 1 1 -14.259 0 7.1293 6.0809 0 1 1 14.259 0z" fill="#ffe680" fill-rule="evenodd" filter="url(#i)" stroke="#00db00" stroke-width="6.2162"/>
  <path transform="matrix(.475 0 0 .4813 498 81.969)" d="m330.88 147.16a11.742 10.484 0 1 1 -23.485 0 11.742 10.484 0 1 1 23.485 0z" fill="#c83737" fill-rule="evenodd"/>
  <path transform="matrix(.28839 0 0 .19252 557.75 125.88)" d="m330.88 147.16a11.742 10.484 0 1 1 -23.485 0 11.742 10.484 0 1 1 23.485 0z" fill="#de8787" fill-rule="evenodd" filter="url(#a)"/>
  <path transform="matrix(.475 0 0 .4813 492.02 87.015)" d="m330.88 147.16a11.742 10.484 0 1 1 -23.485 0 11.742 10.484 0 1 1 23.485 0z" fill="#c83737" fill-rule="evenodd"/>
  <path transform="matrix(.28839 0 0 .19252 551.77 130.92)" d="m330.88 147.16a11.742 10.484 0 1 1 -23.485 0 11.742 10.484 0 1 1 23.485 0z" fill="#de8787" fill-rule="evenodd" filter="url(#a)"/>
  <g transform="matrix(.84919 0 0 .82141 394.28 16.347)" fill-rule="evenodd">
   <path d="m277.44 132.77c-1.9443 4.2712-3.719 6.5597 2.4494 13.41 4.1597-2.7598 7.8469-3.172 7.5091-8.8296l-9.9585-4.5804z" fill="#3b79b3" stroke="#3b79ee" stroke-width="2.2152"/>
   <path d="m272.44 139.63c-6.9129 2.3942-7.6223 8.246-9.1084 13.665 7.2665-1.8046 15.384-2.8972 17.227-9.2383l-8.119-4.4267z" fill="url(#o)" stroke="#00486a" stroke-width="2.2152"/>
   <path d="m285.95 144.95c4.5669 3.9136 10.15 2.2398 15.606 1.2657-4.1509-4.3774-7.9455-9.6093-14.366-8.5417l-1.2403 7.276z" fill="url(#n)" stroke="#00486a" stroke-width="2.2152"/>
   <path d="m277.19 134.83c-3.5424-4.668-9.3916-4.1096-14.952-4.2056 3.0268 5.0385 5.5046 10.838 12.029 11.027l2.9227-6.8218z" fill="url(#m)" stroke="#00486a" stroke-width="2.2152"/>
   <path d="m278.67 147.41c-0.98654 6.432 4.6948 9.3734 9.5412 12.752 1.7715-6.4712 4.7029-13.325-0.91621-17.36l-8.625 4.6086z" fill="url(#l)" stroke="#00486a" stroke-width="2.2152"/>
   <path d="m276.6 132.56c-1.9443 3.8037-3.719 5.8417 2.4494 11.942 4.1597-2.4577 7.8469-2.8248 7.5091-7.8632l-9.9585-4.079z" fill="#3b79b3" stroke="#3b79ee" stroke-width="2.2152"/>
   <path d="m276.14 133.14c-2.3222 4.0734-1.618 5.3096 2.3476 13.806 3.9047-2.0181 9.1522-2.9689 9.8158-8.9804 1.5767-9.0506-7.0079-11.228-12.163-4.8258z" fill="url(#k)" stroke="#1c506e" stroke-opacity=".96604" stroke-width="2.2152"/>
   <path transform="matrix(-.74626 .10197 -.078615 -.57535 510.48 170.36)" d="m291.88 113.61c2.6843 0.00963 1.7142 3.0882-0.01358 3.7849-2.6891 1.0844-5.3717-1.2413-5.8846-3.8061-0.75241-3.7623 2.2946-7.1446 5.9256-7.6245 4.6543-0.61511 8.7186 3.146 9.1638 7.6786 0.2163 2.2018-0.38981 4.4391-1.6426 6.2576" fill="#4441ff" stroke="#31486a" stroke-width="3.3495"/>
   <path transform="matrix(.75319 0 0 .5807 61.317 68.306)" d="m291.88 113.61c2.6843 0.00963 1.7142 3.0882-0.01358 3.7849-2.6891 1.0844-5.3717-1.2413-5.8846-3.8061-0.75241-3.7623 2.2946-7.1446 5.9256-7.6245 4.6543-0.61511 8.7186 3.146 9.1638 7.6786 0.2163 2.2018-0.38981 4.4391-1.6426 6.2576" fill="#4441ff" stroke="#314f6a" stroke-width="3.3495"/>
   <path transform="matrix(.75319 0 0 .5807 61.107 68.516)" d="m291.88 113.61c2.6843 0.00963 1.7142 3.0882-0.01358 3.7849-2.6891 1.0844-5.3717-1.2413-5.8846-3.8061-0.75241-3.7623 2.2946-7.1446 5.9256-7.6245 4.6543-0.61511 8.7186 3.146 9.1638 7.6786 0.2163 2.2018-0.38981 4.4391-1.6426 6.2576" fill="#4441ff" stroke="#312a6a" stroke-width="3.3495"/>
  </g>
  <g transform="translate(437.94 27.104)" fill-rule="evenodd">
   <path d="m167.84 105.36 5.3377 0.59308c2.9676 4.844-3.1948 7.4056-5.9308 10.824-0.86508-4.008-6.0528-8.8394 0.59308-11.417z" fill="#fc0"/>
   <path d="m168.14 101.02 0.55325 4.4454c-4.1039 3.2688-7.9149-1.2901-11.836-2.9114 3.7331-1.4114 7.3535-6.4833 11.283-1.534z" fill="#fc0"/>
   <path d="m173.95 100.7-5.1914 1.484c-4.5174-3.7158 0.30313-8.6944 1.6193-13.199 2.2548 3.6945 8.8377 6.5322 3.5721 11.715z" fill="#fc0"/>
   <path d="m176.59 103.13-1.8374-5.0465c3.0239-4.8091 8.0542-0.42364 12.332 0.51127-3.2078 2.554-5.2351 9.3469-10.494 4.5352z" fill="#fc0"/>
   <path d="m173.6 106.77 3.8841-3.7091c5.6186 0.83843 3.622 7.2063 4.4832 11.499-3.6271-1.9124-10.662-1.0415-8.3673-7.79z" fill="#fc0"/>
   <path transform="matrix(.59645 0 0 .66475 60.333 29.943)" d="m191.84 114.7 3.8841-3.7091c5.6186 0.83843 3.622 7.2063 4.4832 11.499-3.6271-1.9124-10.662-1.0415-8.3673-7.79z" fill="#a0892c" filter="url(#b)"/>
   <path transform="matrix(-.31428 .50694 -.56499 -.35026 293.34 43.839)" d="m191.84 114.7 3.8841-3.7091c5.6186 0.83843 3.622 7.2063 4.4832 11.499-3.6271-1.9124-10.662-1.0415-8.3673-7.79z" fill="#a0892c" filter="url(#b)"/>
   <path transform="matrix(.4297 .41366 -.46102 .47891 139.24 -27.724)" d="m191.84 114.7 3.8841-3.7091c5.6186 0.83843 3.622 7.2063 4.4832 11.499-3.6271-1.9124-10.662-1.0415-8.3673-7.79z" fill="#a0892c" filter="url(#b)"/>
   <path transform="matrix(.15882 -.57492 .64076 .177 73.297 192.26)" d="m191.84 114.7 3.8841-3.7091c5.6186 0.83843 3.622 7.2063 4.4832 11.499-3.6271-1.9124-10.662-1.0415-8.3673-7.79z" fill="#a0892c" filter="url(#b)"/>
   <path transform="matrix(.59645 0 0 .66475 54.55 18.675)" d="m191.84 114.7 3.8841-3.7091c5.6186 0.83843 3.622 7.2063 4.4832 11.499-3.6271-1.9124-10.662-1.0415-8.3673-7.79z" fill="#a0892c" filter="url(#b)"/>
   <path transform="translate(-67.389 -24.537)" d="m244.65 127.6a4.7446 4.2998 0 1 1 -9.4893 0 4.7446 4.2998 0 1 1 9.4893 0z" fill="#540"/>
   <path transform="matrix(.65625 0 0 .83621 15.003 -4.4169)" d="m244.65 127.6a4.7446 4.2998 0 1 1 -9.4893 0 4.7446 4.2998 0 1 1 9.4893 0z" fill="#1a1a1a" filter="url(#h)"/>
  </g>
 </g>
</svg>
