<svg
   viewBox="0 0 164.04605 40.008432"
   xmlns="http://www.w3.org/2000/svg"
>
  <path fill="grey"
        stroke="white"
        stroke-width="2px"
     d="m 14.874873,16.490197 a 19.677015,5.9145821 0 0 1 -2.749977,-4.586409 27.56651,8.2860326 0 0 1 5.33976,-3.3946659 28.8881,8.6832806 0 0 1 9.838507,-2.431639 22.867521,6.873595 0 0 1 17.12728,-0.457437 21.198846,6.3720192 0 0 1 9.344579,-3.912292 34.708438,10.432777 0 0 1 14.137014,-1.57294204 38.8868,11.688723 0 0 1 15.138219,0.200631 c 6.00723,0.469475 11.240194,1.38836204 14.404002,2.81685004 a 24.829883,7.4634482 0 0 1 17.260773,-1.360274 36.644101,11.014605 0 0 1 13.99017,1.223845 30.970607,9.3092472 0 0 1 10.86641,2.736598 19.610268,5.894519 0 0 1 3.85798,4.149035 21.025304,6.3198553 0 0 1 17.63456,3.5792449 27.272823,8.1977552 0 0 1 2.87012,3.00143 26.88569,8.0813896 0 0 1 -1.09465,3.129833 c -2.41624,2.299223 -8.42347,4.245338 -18.68916,4.815128 a 21.265593,6.3920823 0 0 1 -2.66988,3.422753 31.397787,9.4376506 0 0 1 -11.72077,3.531094 33.867426,10.179983 0 0 1 -17.00714,1.41645 30.263088,9.0965791 0 0 1 -17.874847,-1.777585 C 89.671557,32.388144 80.740809,33.050224 71.970254,32.99806 A 46.082127,13.851518 0 0 1 60.863553,32.540623 28.727907,8.6351293 0 0 1 51.372131,31.232513 15.004725,4.5101698 0 0 1 45.565142,28.824949 C 35.633189,29.479004 27.503404,29.017555 21.429428,27.930138 A 25.977931,7.8085324 0 0 1 8.7875467,21.172909 23.067762,6.9337841 0 0 1 14.874873,16.490197 Z m -4.618892,18.762948 a 12.161303,3.6554846 0 0 1 6.914988,0.613929 6.8081937,2.0464293 0 0 1 0,3.527081 12.161303,3.6554846 0 0 1 -6.914988,0.613929 12.121255,3.6434468 0 0 1 -6.9016399,-0.613929 6.8081937,2.0464293 0 0 1 0,-3.527081 12.121255,3.6434468 0 0 1 6.9016399,-0.613929 z m 4.004819,1.845799 a 7.1819769,2.1587823 0 0 0 -4.004819,-0.337059 7.1686275,2.1547697 0 0 0 -4.0048202,0.337059 1.9089641,0.57380274 0 0 0 0,1.063341 7.1686275,2.1547697 0 0 0 4.0048202,0.341071 7.1819769,2.1587823 0 0 0 4.004819,-0.341071 1.9089641,0.57380274 0 0 0 0,-1.063341 z m 20.277738,-6.452271 a 16.846942,5.0639095 0 0 1 9.518122,0.84666 8.9307482,2.6844338 0 0 1 0,4.642586 16.846942,5.0639095 0 0 1 -9.55817,0.842647 16.88699,5.0759473 0 0 1 -9.57152,-0.842647 8.9307482,2.6844338 0 0 1 0,-4.642586 16.90034,5.0799599 0 0 1 9.57152,-0.84666 z m 6.6747,2.07853 a 11.800869,3.5471442 0 0 0 -6.6747,-0.56979 11.814218,3.5511568 0 0 0 -6.6747,0.56979 4.0048198,1.203782 0 0 0 0,2.178845 11.907664,3.5792451 0 0 0 6.6747,0.565778 11.894315,3.5752325 0 0 0 6.6747,-0.565778 4.0048198,1.203782 0 0 0 0,-2.178845 z M 18.238921,12.280973 a 13.442845,4.0406948 0 0 0 3.043663,3.611345 l 0.24029,0.08025 a 3.1237594,0.93894994 0 0 1 -0.45388,1.32416 16.620002,4.9956952 0 0 0 -6.033929,3.876178 19.78381,5.9466829 0 0 0 9.611568,5.144161 c 5.33976,0.963026 12.988966,1.29206 22.693979,0.429349 a 3.4841932,1.0472903 0 0 1 0.921108,-0.03611 3.1237594,0.93894994 0 0 1 3.057013,0.979076 8.1965312,2.4637404 0 0 0 3.77788,2.038404 22.533786,6.7732799 0 0 0 7.382218,0.999139 40.301837,12.114059 0 0 0 9.584869,0.401261 c 8.383422,0.04815 16.700098,-0.593866 20.024099,-1.930064 l 0.160192,-0.05618 a 3.11041,0.93493733 0 0 1 4.405302,-0.0963 24.416051,7.3390574 0 0 0 16.126077,1.853824 27.539811,8.2780073 0 0 0 13.84333,-1.159643 24.976726,7.5075869 0 0 0 9.34458,-2.808825 14.390653,4.3255899 0 0 0 1.65532,-3.065631 2.8033739,0.84264738 0 0 1 -0.12014,-0.188593 3.1237594,0.93894994 0 0 1 2.89682,-1.007164 c 9.21108,-0.208656 14.4841,-1.757522 16.44646,-3.611346 a 21.065352,6.3318932 0 0 0 -1.33494,-4.702775 15.084821,4.5342454 0 0 0 -15.6722,-2.535967 3.1237594,0.93894994 0 0 1 -3.2973,-1.235883 13.349399,4.0126066 0 0 0 -2.06916,-3.7196859 24.522847,7.3711583 0 0 0 -8.66376,-2.174833 30.503378,9.168806 0 0 0 -11.56058,-1.007164 c -5.95383,-0.140442 -11.70742,0.329033 -15.271711,1.637143 a 3.177157,0.95500036 0 0 1 -1.33494,0.288908 3.1237594,0.93894994 0 0 1 -4.00482,-0.581828 C 91.927606,3.5535531 87.241967,2.6186161 81.555122,2.1732171 a 32.932968,9.8991004 0 0 0 -12.735327,-0.164517 28.340775,8.5187637 0 0 0 -11.54723,1.255946 14.684339,4.4138672 0 0 0 -7.088531,3.651472 2.9235185,0.87876084 0 0 1 -0.347084,0.465462 3.11041,0.93493733 0 0 1 -4.205061,0.401261 16.806894,5.0518717 0 0 0 -15.578749,-0.02408 22.426991,6.741179 0 0 0 -7.675905,1.905988 21.359039,6.4201705 0 0 0 -4.138314,2.6122069 z"
     id="path4"
     style="stroke-width:0" />
</svg>
